<?xml version="1.0" encoding="UTF-8"?>
<!DOCTYPE svg PUBLIC "-//W3C//DTD SVG 1.1//EN" "http://www.w3.org/Graphics/SVG/1.1/DTD/svg11.dtd">
<svg xmlns="http://www.w3.org/2000/svg" version="1.1" width="2048px" height="2048px" style="shape-rendering:geometricPrecision; text-rendering:geometricPrecision; image-rendering:optimizeQuality; fill-rule:evenodd; clip-rule:evenodd" xmlns:xlink="http://www.w3.org/1999/xlink">
<g><path style="opacity:0.998" fill="#0074be" d="M 234.5,123.5 C 760.501,123.995 1286.5,124.995 1812.5,126.5C 1766.09,663.168 1719.59,1199.84 1673,1736.5C 1667.53,1739.34 1661.69,1741.51 1655.5,1743C 1446.91,1803.48 1238.24,1863.65 1029.5,1923.5C 808.498,1862.04 587.665,1800.04 367,1737.5C 322.451,1199.53 278.285,661.532 234.5,123.5 Z"/></g>
<g><path style="opacity:1" fill="#0089ca" d="M 1029.5,1582.5 C 1162.69,1540.77 1295.69,1498.44 1428.5,1455.5C 1446.01,1253.23 1463.01,1050.9 1479.5,848.5C 1339.83,848.667 1200.17,848.5 1060.5,848C 1212.61,785.109 1364.61,721.943 1516.5,658.5C 1517.5,594.837 1517.83,531.17 1517.5,467.5C 1354.83,467.5 1192.17,467.5 1029.5,467.5C 1029.5,404.167 1029.5,340.833 1029.5,277.5C 1245.84,277.8 1462.17,278.466 1678.5,279.5C 1640.28,723.848 1601.78,1168.18 1563,1612.5C 1385.5,1664.08 1208,1715.75 1030.5,1767.5C 1029.5,1705.84 1029.17,1644.17 1029.5,1582.5 Z"/></g>
<g><path style="opacity:1" fill="#fefefe" d="M 1029.5,467.5 C 1192.17,467.5 1354.83,467.5 1517.5,467.5C 1517.83,531.17 1517.5,594.837 1516.5,658.5C 1364.61,721.943 1212.61,785.109 1060.5,848C 1200.17,848.5 1339.83,848.667 1479.5,848.5C 1463.01,1050.9 1446.01,1253.23 1428.5,1455.5C 1295.69,1498.44 1162.69,1540.77 1029.5,1582.5C 891.248,1543.87 752.914,1505.54 614.5,1467.5C 606.332,1365.15 597.999,1262.82 589.5,1160.5C 589.5,1159.17 589.5,1157.83 589.5,1156.5C 653.833,1156.5 718.167,1156.5 782.5,1156.5C 788.217,1206.02 793.884,1255.69 799.5,1305.5C 868.828,1323.33 938.161,1341.17 1007.5,1359C 1014.91,1358.55 1022.25,1357.39 1029.5,1355.5C 1100.48,1341.7 1171.48,1328.04 1242.5,1314.5C 1251.01,1226.86 1259.35,1139.19 1267.5,1051.5C 1038.26,1050.83 808.931,1050.17 579.5,1049.5C 571.488,988.083 562.821,926.75 553.5,865.5C 553.57,864.228 553.903,863.062 554.5,862C 707.904,796.257 861.237,730.424 1014.5,664.5C 1015.92,664.291 1017.26,663.791 1018.5,663C 860.834,662.5 703.167,662.333 545.5,662.5C 536.715,597.79 527.715,533.124 518.5,468.5C 688.832,467.5 859.165,467.167 1029.5,467.5 Z"/></g>
<g><path style="opacity:1" fill="#0297ce" d="M 545.5,662.5 C 703.167,662.333 860.834,662.5 1018.5,663C 1017.26,663.791 1015.92,664.291 1014.5,664.5C 858.167,663.833 701.833,663.167 545.5,662.5 Z"/></g>
<g><path style="opacity:1" fill="#bcdeef" d="M 579.5,1049.5 C 808.931,1050.17 1038.26,1050.83 1267.5,1051.5C 1188.17,1051.5 1108.83,1051.5 1029.5,1051.5C 879.163,1052.17 729.163,1051.5 579.5,1049.5 Z"/></g>
<g><path style="opacity:1" fill="#0089ca" d="M 1029.5,1051.5 C 1108.83,1051.5 1188.17,1051.5 1267.5,1051.5C 1259.35,1139.19 1251.01,1226.86 1242.5,1314.5C 1171.48,1328.04 1100.48,1341.7 1029.5,1355.5C 1029.5,1254.17 1029.5,1152.83 1029.5,1051.5 Z"/></g>
<g><path style="opacity:1" fill="#76b9de" d="M 782.5,1156.5 C 718.167,1156.5 653.833,1156.5 589.5,1156.5C 589.5,1157.83 589.5,1159.17 589.5,1160.5C 588.549,1159.08 588.216,1157.41 588.5,1155.5C 653.335,1155.17 718.002,1155.5 782.5,1156.5 Z"/></g>
</svg>
