<?xml version="1.0" encoding="UTF-8"?>
<!DOCTYPE svg PUBLIC "-//W3C//DTD SVG 1.1//EN" "http://www.w3.org/Graphics/SVG/1.1/DTD/svg11.dtd">
<svg xmlns="http://www.w3.org/2000/svg" version="1.1" width="4096px" height="4096px" style="shape-rendering:geometricPrecision; text-rendering:geometricPrecision; image-rendering:optimizeQuality; fill-rule:evenodd; clip-rule:evenodd" xmlns:xlink="http://www.w3.org/1999/xlink">
<g><path style="opacity:1" fill="#f14e1e" d="M 2047.5,247.5 C 2047.5,647.5 2047.5,1047.5 2047.5,1447.5C 1839.17,1447.5 1630.83,1447.5 1422.5,1447.5C 1419.43,1447.71 1416.09,1447.37 1412.5,1446.5C 1238.17,1433.76 1095,1361.09 983,1228.5C 877.812,1096.55 833.812,946.219 851,777.5C 872.143,617.671 943.976,486.171 1066.5,383C 1167.2,301.745 1282.53,256.745 1412.5,248C 1624.17,247.5 1835.83,247.333 2047.5,247.5 Z"/></g>
<g><path style="opacity:1" fill="#fe7262" d="M 2047.5,247.5 C 2259.17,247.333 2470.83,247.5 2682.5,248C 2857.69,261.255 3001.36,334.755 3113.5,468.5C 3219.28,602.558 3262.45,754.891 3243,925.5C 3218.55,1090.98 3140.71,1224.81 3009.5,1327C 2912.76,1399.31 2803.76,1439.15 2682.5,1446.5C 2659.92,1447.37 2636.59,1447.71 2612.5,1447.5C 2424.17,1447.5 2235.83,1447.5 2047.5,1447.5C 2047.5,1047.5 2047.5,647.5 2047.5,247.5 Z"/></g>
<g><path style="opacity:0.416" fill="#6d9cb5" d="M 1412.5,1446.5 C 1416.09,1447.37 1419.43,1447.71 1422.5,1447.5C 1419.38,1448.48 1416.04,1448.81 1412.5,1448.5C 1412.5,1447.83 1412.5,1447.17 1412.5,1446.5 Z"/></g>
<g><path style="opacity:1" fill="#a159fe" d="M 1422.5,1447.5 C 1630.83,1447.5 1839.17,1447.5 2047.5,1447.5C 2047.5,1635.83 2047.5,1824.17 2047.5,2012.5C 2047.5,2035.83 2047.5,2059.17 2047.5,2082.5C 2047.5,2270.83 2047.5,2459.17 2047.5,2647.5C 1839.17,2647.5 1630.83,2647.5 1422.5,2647.5C 1419.38,2646.52 1416.04,2646.19 1412.5,2646.5C 1254.42,2635.7 1120.58,2573.7 1011,2460.5C 891.286,2329.71 837.286,2175.38 849,1997.5C 864.99,1835.35 933.49,1700.51 1054.5,1593C 1157.27,1505.32 1276.61,1457.15 1412.5,1448.5C 1416.04,1448.81 1419.38,1448.48 1422.5,1447.5 Z"/></g>
<g><path style="opacity:1" fill="#1abbfd" d="M 2682.5,1446.5 C 2861.78,1461.55 3007.95,1538.55 3121,1677.5C 3227.54,1818.66 3266.87,1977 3239,2152.5C 3207.03,2316.73 3123.2,2446.9 2987.5,2543C 2843.77,2638.08 2687.11,2668.41 2517.5,2634C 2340.9,2591.35 2208.07,2491.18 2119,2333.5C 2077.17,2254.85 2053.33,2171.18 2047.5,2082.5C 2047.5,2059.17 2047.5,2035.83 2047.5,2012.5C 2060.51,1843.99 2129.84,1703.82 2255.5,1592C 2358.49,1505.2 2477.49,1457.03 2612.5,1447.5C 2636.59,1447.71 2659.92,1447.37 2682.5,1446.5 Z"/></g>
<g><path style="opacity:0.416" fill="#6d9cb5" d="M 1412.5,2646.5 C 1416.04,2646.19 1419.38,2646.52 1422.5,2647.5C 1419.38,2648.48 1416.04,2648.81 1412.5,2648.5C 1412.5,2647.83 1412.5,2647.17 1412.5,2646.5 Z"/></g>
<g><path style="opacity:1" fill="#0ace83" d="M 1422.5,2647.5 C 1630.83,2647.5 1839.17,2647.5 2047.5,2647.5C 2047.67,2859.17 2047.5,3070.83 2047,3282.5C 2033.22,3462.26 1956.72,3608.43 1817.5,3721C 1676.5,3827.5 1518.17,3866.83 1342.5,3839C 1182.97,3808.01 1055.14,3727.51 959,3597.5C 863.695,3459.92 829.362,3308.26 856,3142.5C 887.082,2982.91 967.582,2855.08 1097.5,2759C 1191.61,2692.35 1296.61,2655.52 1412.5,2648.5C 1416.04,2648.81 1419.38,2648.48 1422.5,2647.5 Z"/></g>
</svg>
