<?xml version="1.0" encoding="UTF-8"?>
<!DOCTYPE svg PUBLIC "-//W3C//DTD SVG 1.1//EN" "http://www.w3.org/Graphics/SVG/1.1/DTD/svg11.dtd">
<svg xmlns="http://www.w3.org/2000/svg" version="1.1" width="3840px" height="2160px" style="shape-rendering:geometricPrecision; text-rendering:geometricPrecision; image-rendering:optimizeQuality; fill-rule:evenodd; clip-rule:evenodd" xmlns:xlink="http://www.w3.org/1999/xlink">
<g><path style="opacity:0.998" fill="#000000" d="M 1874.5,37.5 C 2173.54,28.9184 2432.88,125.418 2652.5,327C 2802.26,470.257 2903.42,642.757 2956,844.5C 2987.8,977.811 2995.13,1112.48 2978,1248.5C 2957.19,1407.62 2902.86,1553.96 2815,1687.5C 2724.28,1826.22 2608.11,1938.39 2466.5,2024C 2400.78,2062.47 2331.78,2093.8 2259.5,2118C 2243.27,2121.9 2227.27,2121.24 2211.5,2116C 2196.62,2107.42 2187.78,2094.59 2185,2077.5C 2184.83,1973.93 2184.33,1870.43 2183.5,1767C 2184.78,1718.45 2174.62,1671.95 2153,1627.5C 2142.32,1608.32 2128.82,1591.32 2112.5,1576.5C 2165.26,1570.65 2217.26,1560.82 2268.5,1547C 2334.37,1526.76 2394.37,1495.76 2448.5,1454C 2495.65,1414.83 2530.49,1366.66 2553,1309.5C 2585.42,1227.32 2600.92,1141.98 2599.5,1053.5C 2601.53,954.518 2572.36,866.185 2512,788.5C 2504.61,779.953 2497.45,771.286 2490.5,762.5C 2515.66,694.576 2519.83,625.909 2503,556.5C 2497.01,530.521 2489.01,505.188 2479,480.5C 2474.74,478.579 2470.24,477.412 2465.5,477C 2443.4,475.304 2421.74,477.637 2400.5,484C 2355.57,498.129 2312.24,516.129 2270.5,538C 2241.69,554.815 2213.19,571.981 2185,589.5C 2007.51,541.507 1830.01,541.507 1652.5,589.5C 1629.37,574.764 1606.04,560.264 1582.5,546C 1534.52,521.175 1484.86,500.508 1433.5,484C 1417.46,479.549 1401.13,477.049 1384.5,476.5C 1375.86,476.33 1367.36,477.33 1359,479.5C 1329.82,546.612 1319.48,616.612 1328,689.5C 1331.85,714.55 1338.35,738.883 1347.5,762.5C 1280.71,835.955 1244.54,922.622 1239,1022.5C 1235.38,1100.59 1244.05,1177.25 1265,1252.5C 1279.95,1304.05 1302.62,1351.72 1333,1395.5C 1368.72,1441.56 1412.56,1477.73 1464.5,1504C 1529.11,1538.31 1597.78,1559.98 1670.5,1569C 1688.51,1571.5 1706.51,1574 1724.5,1576.5C 1696.96,1602.55 1677.8,1633.88 1667,1670.5C 1662.28,1686.92 1658.78,1703.59 1656.5,1720.5C 1600.73,1744.55 1542.73,1752.39 1482.5,1744C 1443.84,1733.65 1411.01,1713.81 1384,1684.5C 1378,1677.17 1372,1669.83 1366,1662.5C 1355.42,1646.34 1345.08,1630 1335,1613.5C 1303.64,1571.73 1263.14,1542.56 1213.5,1526C 1191.54,1520.59 1169.54,1520.26 1147.5,1525C 1136.78,1527.67 1132.95,1534.17 1136,1544.5C 1141.89,1556.4 1150.06,1566.57 1160.5,1575C 1172.16,1583.17 1184.16,1590.83 1196.5,1598C 1211.7,1610.2 1225.2,1624.04 1237,1639.5C 1263.89,1674.61 1284.56,1713.27 1299,1755.5C 1320.43,1802.26 1354.93,1835.43 1402.5,1855C 1421.73,1863.14 1441.73,1868.48 1462.5,1871C 1526.29,1882.01 1589.79,1880.85 1653,1867.5C 1653.18,1880.08 1653.68,1892.58 1654.5,1905C 1654.17,1911.33 1653.83,1917.67 1653.5,1924C 1654.56,1974.26 1655.06,2023.76 1655,2072.5C 1652.86,2092.97 1642.7,2107.81 1624.5,2117C 1609.27,2121.27 1593.94,2121.61 1578.5,2118C 1365.87,2046.31 1193.04,1920.47 1060,1740.5C 900.914,1523.13 832.581,1279.46 855,1009.5C 870.392,831.977 926.726,668.977 1024,520.5C 1158.65,317.891 1340.82,175.724 1570.5,94C 1669.26,60.5982 1770.59,41.7649 1874.5,37.5 Z"/></g>
</svg>
