<?xml version="1.0" encoding="UTF-8"?>
<!DOCTYPE svg PUBLIC "-//W3C//DTD SVG 1.1//EN" "http://www.w3.org/Graphics/SVG/1.1/DTD/svg11.dtd">
<svg xmlns="http://www.w3.org/2000/svg" version="1.1" width="2048px" height="2048px" style="shape-rendering:geometricPrecision; text-rendering:geometricPrecision; image-rendering:optimizeQuality; fill-rule:evenodd; clip-rule:evenodd" xmlns:xlink="http://www.w3.org/1999/xlink">
<g><path style="opacity:0.998" fill="#ff4e1d" d="M 234.5,123.5 C 760.501,123.994 1286.5,124.994 1812.5,126.5C 1766.09,663.168 1719.59,1199.84 1673,1736.5C 1667.53,1739.34 1661.69,1741.51 1655.5,1743C 1446.91,1803.48 1238.24,1863.65 1029.5,1923.5C 808.498,1862.04 587.665,1800.04 367,1737.5C 322.502,1199.53 278.336,661.528 234.5,123.5 Z"/></g>
<g><path style="opacity:1" fill="#ff6520" d="M 1029.5,1579.5 C 1161.81,1542.29 1294.31,1505.29 1427,1468.5C 1444.96,1265.81 1463.12,1063.14 1481.5,860.5C 1482.45,859.081 1482.78,857.415 1482.5,855.5C 1331.5,855.5 1180.5,855.5 1029.5,855.5C 1029.5,787.167 1029.5,718.833 1029.5,650.5C 932.167,650.5 834.833,650.5 737.5,650.5C 991.666,649.5 1246,649.167 1500.5,649.5C 1506.5,583.833 1512.5,518.167 1518.5,452.5C 1355.5,452.5 1192.5,452.5 1029.5,452.5C 1029.5,394.167 1029.5,335.833 1029.5,277.5C 1245.83,277.871 1462.17,278.538 1678.5,279.5C 1640.06,724.157 1601.72,1168.82 1563.5,1613.5C 1385.75,1664.36 1208.08,1715.69 1030.5,1767.5C 1029.5,1704.84 1029.17,1642.17 1029.5,1579.5 Z"/></g>
<g><path style="opacity:1" fill="#fffefe" d="M 1029.5,452.5 C 1192.5,452.5 1355.5,452.5 1518.5,452.5C 1512.5,518.167 1506.5,583.833 1500.5,649.5C 1246,649.167 991.666,649.5 737.5,650.5C 744.101,718.175 750.767,785.841 757.5,853.5C 757.5,854.5 757.5,855.5 757.5,856.5C 848.167,856.5 938.833,856.5 1029.5,856.5C 1180.17,856.5 1330.83,856.5 1481.5,856.5C 1481.5,857.833 1481.5,859.167 1481.5,860.5C 1463.12,1063.14 1444.96,1265.81 1427,1468.5C 1294.31,1505.29 1161.81,1542.29 1029.5,1579.5C 1025.14,1580.29 1020.8,1581.29 1016.5,1582.5C 880.759,1544.98 745.092,1507.32 609.5,1469.5C 600.427,1364.51 591.427,1259.51 582.5,1154.5C 648.501,1154.33 714.501,1154.5 780.5,1155C 784.171,1206.39 788.504,1257.72 793.5,1309C 867.782,1330.65 942.115,1352.15 1016.5,1373.5C 1020.95,1372.43 1025.29,1371.1 1029.5,1369.5C 1098.79,1350.91 1168.13,1332.58 1237.5,1314.5C 1246.45,1228.52 1255.12,1142.52 1263.5,1056.5C 1033.83,1056.5 804.167,1056.5 574.5,1056.5C 556.166,855.163 537.833,653.83 519.5,452.5C 689.5,452.5 859.5,452.5 1029.5,452.5 Z"/></g>
<g><path style="opacity:1" fill="#ff4e1d" d="M 737.5,650.5 C 834.833,650.5 932.167,650.5 1029.5,650.5C 1029.5,718.833 1029.5,787.167 1029.5,855.5C 938.621,856.16 847.955,855.494 757.5,853.5C 750.767,785.841 744.101,718.175 737.5,650.5 Z"/></g>
<g><path style="opacity:1" fill="#ff7c5a" d="M 757.5,853.5 C 847.955,855.494 938.621,856.16 1029.5,855.5C 1029.5,855.833 1029.5,856.167 1029.5,856.5C 938.833,856.5 848.167,856.5 757.5,856.5C 757.5,855.5 757.5,854.5 757.5,853.5 Z"/></g>
<g><path style="opacity:1" fill="#ff8d5c" d="M 1029.5,856.5 C 1029.5,856.167 1029.5,855.833 1029.5,855.5C 1180.5,855.5 1331.5,855.5 1482.5,855.5C 1482.78,857.415 1482.45,859.081 1481.5,860.5C 1481.5,859.167 1481.5,857.833 1481.5,856.5C 1330.83,856.5 1180.17,856.5 1029.5,856.5 Z"/></g>
<g><path style="opacity:1" fill="#ff6521" d="M 574.5,1056.5 C 804.167,1056.5 1033.83,1056.5 1263.5,1056.5C 1255.12,1142.52 1246.45,1228.52 1237.5,1314.5C 1168.13,1332.58 1098.79,1350.91 1029.5,1369.5C 1029.5,1265.5 1029.5,1161.5 1029.5,1057.5C 877.666,1057.83 725.999,1057.5 574.5,1056.5 Z"/></g>
</svg>
