<?xml version="1.0" encoding="UTF-8"?>
<!DOCTYPE svg PUBLIC "-//W3C//DTD SVG 1.1//EN" "http://www.w3.org/Graphics/SVG/1.1/DTD/svg11.dtd">
<svg xmlns="http://www.w3.org/2000/svg" version="1.1" width="5000px" height="5000px" style="shape-rendering:geometricPrecision; text-rendering:geometricPrecision; image-rendering:optimizeQuality; fill-rule:evenodd; clip-rule:evenodd" xmlns:xlink="http://www.w3.org/1999/xlink">
<g><path style="opacity:0.22" fill="#efda4e" d="M -0.5,-0.5 C 1666.17,-0.5 3332.83,-0.5 4999.5,-0.5C 4999.5,1666.17 4999.5,3332.83 4999.5,4999.5C 3332.83,4999.5 1666.17,4999.5 -0.5,4999.5C -0.5,3332.83 -0.5,1666.17 -0.5,-0.5 Z"/></g>
<g><path style="opacity:1" fill="#323330" d="M 3756.5,2268.5 C 3855.01,2264.87 3952.01,2275.03 4047.5,2299C 4178.25,2335.84 4286.75,2406.34 4373,2510.5C 4406.87,2551.89 4437.04,2595.89 4463.5,2642.5C 4342.7,2721.62 4221.37,2799.95 4099.5,2877.5C 4078.64,2840.81 4054.47,2806.48 4027,2774.5C 3972.3,2713.41 3903.8,2681.24 3821.5,2678C 3761.05,2672.03 3705.38,2685.36 3654.5,2718C 3604.89,2754.02 3577.72,2802.86 3573,2864.5C 3568.28,2949.56 3600.78,3016.06 3670.5,3064C 3710.94,3091.23 3753.61,3114.9 3798.5,3135C 3875,3168.72 3951.67,3202.06 4028.5,3235C 4119.59,3274.37 4206.59,3320.7 4289.5,3374C 4346.36,3411.16 4398.19,3454.66 4445,3504.5C 4522.54,3590.61 4570.87,3691.27 4590,3806.5C 4608.18,3913.54 4604.84,4019.88 4580,4125.5C 4543.39,4263.97 4466.89,4374.47 4350.5,4457C 4278.32,4506.75 4199.65,4543.08 4114.5,4566C 3988.79,4598.54 3861.12,4609.87 3731.5,4600C 3590.12,4591.57 3456.45,4555.24 3330.5,4491C 3210.31,4427.28 3110.81,4339.78 3032,4228.5C 3008.92,4195.53 2988.76,4160.7 2971.5,4124C 3097.92,4050.28 3224.58,3976.78 3351.5,3903.5C 3386.13,3961.33 3427.79,4013.83 3476.5,4061C 3562.63,4140.36 3664.63,4182.36 3782.5,4187C 3849.45,4191.4 3914.45,4182.4 3977.5,4160C 4023.82,4142.78 4062.32,4114.95 4093,4076.5C 4129.69,4023.69 4141.03,3965.69 4127,3902.5C 4116.83,3860.32 4096,3824.48 4064.5,3795C 4032.85,3767.03 3998.18,3743.37 3960.5,3724C 3929.2,3707.85 3897.53,3692.52 3865.5,3678C 3781.08,3641.53 3696.75,3604.86 3612.5,3568C 3524.05,3528.8 3441.38,3480.47 3364.5,3423C 3303.95,3376.46 3252.45,3321.62 3210,3258.5C 3159.28,3177.68 3128.28,3089.68 3117,2994.5C 3107.67,2923.38 3108.34,2852.38 3119,2781.5C 3151.84,2599.19 3247.34,2460.69 3405.5,2366C 3498.15,2313.9 3597.49,2282.9 3703.5,2273C 3721.31,2271.37 3738.98,2269.87 3756.5,2268.5 Z"/></g>
<g><path style="opacity:1" fill="#323330" d="M 2246.5,2295.5 C 2402.83,2295.5 2559.17,2295.5 2715.5,2295.5C 2715.67,2840.17 2715.5,3384.83 2715,3929.5C 2713.27,4011.47 2700.94,4091.81 2678,4170.5C 2620.58,4359.25 2499.42,4487.75 2314.5,4556C 2216.38,4588.73 2115.55,4604.23 2012,4602.5C 1897.2,4604.12 1786.7,4583.28 1680.5,4540C 1562.39,4489.24 1465.56,4411.74 1390,4307.5C 1359.73,4266.16 1333.9,4221.99 1312.5,4175C 1312.64,4174.23 1312.98,4173.56 1313.5,4173C 1420,4108.92 1526.33,4044.58 1632.5,3980C 1652.61,3967.53 1673.11,3955.69 1694,3944.5C 1709.3,3970.48 1724.64,3996.48 1740,4022.5C 1761.96,4058.48 1788.46,4090.98 1819.5,4120C 1863.53,4159.16 1915.2,4180.5 1974.5,4184C 2020.55,4186.95 2065.55,4181.62 2109.5,4168C 2159.09,4150.41 2194.59,4117.58 2216,4069.5C 2230.55,4034.24 2239.55,3997.57 2243,3959.5C 2244,3944.83 2245,3930.17 2246,3915.5C 2246.5,3375.5 2246.67,2835.5 2246.5,2295.5 Z"/></g>
</svg>
