<?xml version="1.0" encoding="UTF-8"?>
<!DOCTYPE svg PUBLIC "-//W3C//DTD SVG 1.1//EN" "http://www.w3.org/Graphics/SVG/1.1/DTD/svg11.dtd">
<svg xmlns="http://www.w3.org/2000/svg" version="1.1" width="1018px" height="764px" style="shape-rendering:geometricPrecision; text-rendering:geometricPrecision; image-rendering:optimizeQuality; fill-rule:evenodd; clip-rule:evenodd" xmlns:xlink="http://www.w3.org/1999/xlink">
<g><path style="opacity:0.984" fill="#cd6699" d="M 436.5,-0.5 C 452.167,-0.5 467.833,-0.5 483.5,-0.5C 515.059,1.58338 545.392,9.08338 574.5,22C 624.349,46.1796 646.182,86.013 640,141.5C 635.315,175.856 622.648,206.856 602,234.5C 557.555,292.834 499.055,329.001 426.5,343C 386.403,352.349 346.07,353.682 305.5,347C 276.981,341.01 254.481,326.177 238,302.5C 234.78,296.521 233.447,290.188 234,283.5C 235.864,280.793 238.364,279.959 241.5,281C 259.973,301.069 282.973,312.402 310.5,315C 393.062,317.484 465.396,291.817 527.5,238C 552.889,215.277 571.055,187.777 582,155.5C 587.139,138.26 586.473,121.26 580,104.5C 572.759,91.4525 562.259,81.9525 548.5,76C 523.679,65.9458 497.845,61.1124 471,61.5C 418.558,63.2352 368.058,74.0685 319.5,94C 261.387,118.373 207.387,149.373 157.5,187C 133.123,205.705 112.623,227.872 96,253.5C 65.1004,305.451 70.4338,353.117 112,396.5C 122.201,406.37 132.701,415.87 143.5,425C 164.833,441.667 186.167,458.333 207.5,475C 217.064,483.902 226.564,492.736 236,501.5C 269.071,483.38 302.238,465.38 335.5,447.5C 353.116,423.049 375.449,404.216 402.5,391C 439.889,377.173 459.222,390.007 460.5,429.5C 460.11,436.182 459.943,442.849 460,449.5C 470.378,442.649 480.378,443.315 490,451.5C 491.922,454.17 493.088,457.17 493.5,460.5C 484.078,494.935 475.578,529.602 468,564.5C 465.735,574.53 465.568,584.53 467.5,594.5C 469.493,592.334 471.327,590.001 473,587.5C 503.37,524.429 532.37,460.762 560,396.5C 564.773,383.743 568.773,370.743 572,357.5C 572.465,356.069 573.299,354.903 574.5,354C 591.023,347.794 608.023,346.127 625.5,349C 632.719,350.855 635.886,355.355 635,362.5C 628.074,379.702 623.908,397.535 622.5,416C 622.783,437.3 628.283,457.133 639,475.5C 662.431,439.313 682.765,401.313 700,361.5C 702.39,349.164 705.89,337.164 710.5,325.5C 715.618,322.069 721.285,319.902 727.5,319C 737.801,317.608 748.134,317.274 758.5,318C 762.467,318.483 766.134,319.816 769.5,322C 771.726,323.62 773.06,325.786 773.5,328.5C 769.046,341.647 765.213,354.98 762,368.5C 759.369,386.786 760.702,404.786 766,422.5C 771.199,435.232 777.199,447.565 784,459.5C 826.172,439.146 870.339,433.313 916.5,442C 953.819,449.714 982.986,469.214 1004,500.5C 1011.24,513.049 1015.74,526.382 1017.5,540.5C 1017.5,545.833 1017.5,551.167 1017.5,556.5C 1012.88,584.516 997.213,603.683 970.5,614C 967.167,614.667 963.833,614.667 960.5,614C 959.409,611.936 959.242,609.769 960,607.5C 1000.78,581.465 1006.12,549.465 976,511.5C 957.07,493.284 934.57,481.784 908.5,477C 869.6,469.146 831.6,472.146 794.5,486C 811.007,521.484 804.674,552.151 775.5,578C 757.319,593.091 736.652,603.424 713.5,609C 693.879,610.714 683.546,601.714 682.5,582C 684.813,558.881 693.313,538.381 708,520.5C 718.503,507.998 729.67,496.165 741.5,485C 728.423,460.603 719.423,434.77 714.5,407.5C 696.263,442.323 676.263,475.989 654.5,508.5C 680.278,571.105 661.278,613.605 597.5,636C 580.536,641.788 563.202,643.455 545.5,641C 535.491,637.149 531.658,629.983 534,619.5C 535.473,615.221 537.473,611.221 540,607.5C 556.19,587.131 572.857,567.131 590,547.5C 595.847,539.127 601.68,530.794 607.5,522.5C 601.336,508.838 595.169,495.172 589,481.5C 584.673,466.855 580.673,452.188 577,437.5C 551.616,501.6 521.949,563.6 488,623.5C 482.001,633.508 474.501,642.341 465.5,650C 445.981,661.937 431.814,657.437 423,636.5C 421.524,631.594 420.524,626.594 420,621.5C 419.449,607.807 419.449,594.14 420,580.5C 410.05,606.733 397.717,631.733 383,655.5C 372.965,668.591 359.798,673.425 343.5,670C 331.973,666.477 323.473,659.31 318,648.5C 298.396,610.743 293.396,571.076 303,529.5C 305.199,519.046 307.532,508.713 310,498.5C 291.727,508.382 273.893,518.882 256.5,530C 275.15,581.181 271.983,631.014 247,679.5C 218.064,727.387 175.897,755.387 120.5,763.5C 111.5,763.5 102.5,763.5 93.5,763.5C 66.4921,763.334 47.9921,750.668 38,725.5C 26.5408,687.338 33.2075,652.672 58,621.5C 80.1623,597.662 104.996,577.162 132.5,560C 153.679,546.908 175.346,534.574 197.5,523C 189.788,516.286 181.788,509.953 173.5,504C 144.482,484.158 115.815,463.825 87.5,443C 58.4082,421.247 34.2416,395.08 15,364.5C 7.93247,351.78 2.7658,338.447 -0.5,324.5C -0.5,315.833 -0.5,307.167 -0.5,298.5C 6.62866,264.908 20.7953,234.575 42,207.5C 72.4645,170.029 107.631,137.862 147.5,111C 216.141,65.9888 290.141,32.3221 369.5,10C 391.741,4.9583 414.075,1.4583 436.5,-0.5 Z M 423.5,426.5 C 430.212,425.878 433.212,428.878 432.5,435.5C 430.773,448.076 427.94,460.409 424,472.5C 410.419,514.984 394.085,556.318 375,596.5C 372.359,601.641 368.526,605.641 363.5,608.5C 359.603,606.73 357.103,603.73 356,599.5C 349.421,570.96 350.421,542.627 359,514.5C 366.17,492.16 376.503,471.493 390,452.5C 398.621,440.305 409.787,431.638 423.5,426.5 Z M 756.5,506.5 C 764.359,537.621 753.692,560.121 724.5,574C 722.564,574.813 720.564,575.313 718.5,575.5C 721.383,555.352 729.216,537.352 742,521.5C 746.858,516.383 751.691,511.383 756.5,506.5 Z M 221.5,545.5 C 222.586,545.62 223.253,546.287 223.5,547.5C 235.528,600.916 220.861,645.416 179.5,681C 164.717,693.556 147.717,701.556 128.5,705C 119.667,706.526 111.334,705.193 103.5,701C 95.6191,691.03 93.4525,679.863 97,667.5C 103.446,642.446 116.613,621.612 136.5,605C 163.354,582.968 191.687,563.134 221.5,545.5 Z M 621.5,552.5 C 622.338,558.199 621.505,563.865 619,569.5C 609.127,588.375 594.46,602.042 575,610.5C 574.5,610.167 574,609.833 573.5,609.5C 590.697,591.395 606.697,572.395 621.5,552.5 Z"/></g>
</svg>
