<?xml version="1.0" encoding="UTF-8"?>
<!DOCTYPE svg PUBLIC "-//W3C//DTD SVG 1.1//EN" "http://www.w3.org/Graphics/SVG/1.1/DTD/svg11.dtd">
<svg xmlns="http://www.w3.org/2000/svg" version="1.1" width="4096px" height="4096px" style="shape-rendering:geometricPrecision; text-rendering:geometricPrecision; image-rendering:optimizeQuality; fill-rule:evenodd; clip-rule:evenodd" xmlns:xlink="http://www.w3.org/1999/xlink">
<g><path style="opacity:1" fill="#3178c6" d="M 572.5,247.5 C 1555.33,247.5 2538.17,247.5 3521,247.5C 3611.44,254.851 3689.78,292.851 3756,361.5C 3807.07,419.098 3836.57,483.932 3844.5,556C 3845.93,561.424 3846.93,567.091 3847.5,573C 3847.5,1555.67 3847.5,2538.33 3847.5,3521C 3837,3636.78 3782.33,3727.78 3683.5,3794C 3631.89,3825.37 3578.06,3843.2 3522,3847.5C 2539.33,3847.5 1556.67,3847.5 574,3847.5C 483.764,3840.26 405.431,3802.26 339,3733.5C 288.884,3677.5 259.384,3613 250.5,3540C 249.074,3533.9 248.074,3527.57 247.5,3521C 247.5,2538.33 247.5,1555.67 247.5,573C 248.068,567.091 249.068,561.424 250.5,556C 262.62,457.11 310.287,376.11 393.5,313C 444.152,277.208 498.318,256.375 556,250.5C 561.369,248.992 566.869,247.992 572.5,247.5 Z"/></g>
<g><path style="opacity:1" fill="#fefefe" d="M 2476.5,3460.5 C 2476.5,3348.17 2476.5,3235.83 2476.5,3123.5C 2575.96,3200.19 2688.29,3247.69 2813.5,3266C 2865.09,3272.42 2916.76,3273.09 2968.5,3268C 3012.13,3263.76 3053.47,3251.76 3092.5,3232C 3145.24,3203.7 3170.41,3159.53 3168,3099.5C 3165.7,3072.6 3156.7,3048.26 3141,3026.5C 3125.14,3005.31 3106.64,2986.81 3085.5,2971C 3041.3,2939.55 2993.96,2913.22 2943.5,2892C 2906.4,2875.45 2869.07,2859.45 2831.5,2844C 2772.99,2817.09 2716.99,2786.09 2663.5,2751C 2603.01,2709.51 2553.84,2657.34 2516,2594.5C 2482.13,2529.19 2465.63,2459.69 2466.5,2386C 2464.87,2258.74 2509.87,2151.74 2601.5,2065C 2664.95,2010.05 2737.61,1971.71 2819.5,1950C 2932.14,1921.53 3046.47,1910.86 3162.5,1918C 3259.39,1920.48 3354.06,1936.15 3446.5,1965C 3457.84,1968.78 3469,1972.95 3480,1977.5C 3481,2087.97 3480.66,2198.31 3479,2308.5C 3450.2,2287.77 3419.37,2270.27 3386.5,2256C 3296.68,2219 3203.18,2199.84 3106,2198.5C 3051.23,2197.23 2998.07,2205.73 2946.5,2224C 2911.01,2237.5 2881.85,2259.33 2859,2289.5C 2839.61,2320.49 2834.28,2353.82 2843,2389.5C 2847.5,2406.5 2855.16,2421.83 2866,2435.5C 2885.11,2458.45 2906.95,2478.28 2931.5,2495C 2957.13,2511.93 2983.8,2527.27 3011.5,2541C 3068.33,2566.39 3125.33,2591.39 3182.5,2616C 3233.39,2639.77 3282.72,2666.11 3330.5,2695C 3381.52,2728.67 3427.02,2768.84 3467,2815.5C 3512.36,2876.89 3538.03,2945.89 3544,3022.5C 3553.57,3128.64 3533.91,3228.97 3485,3323.5C 3463.45,3360.42 3435.95,3392.25 3402.5,3419C 3343.33,3464.58 3277.33,3496.92 3204.5,3516C 3120.14,3537.09 3034.47,3548.09 2947.5,3549C 2840.84,3551.27 2735.51,3540.6 2631.5,3517C 2585.39,3506.19 2540.72,3491.19 2497.5,3472C 2490.15,3468.66 2483.15,3464.83 2476.5,3460.5 Z"/></g>
<g><path style="opacity:1" fill="#fefefe" d="M 1077.5,1955.5 C 1496.83,1955.33 1916.17,1955.5 2335.5,1956C 2336.5,2052.1 2336.83,2148.26 2336.5,2244.5C 2186.5,2244.5 2036.5,2244.5 1886.5,2244.5C 1886.5,2673.5 1886.5,3102.5 1886.5,3531.5C 1766.5,3531.5 1646.5,3531.5 1526.5,3531.5C 1526.5,3102.5 1526.5,2673.5 1526.5,2244.5C 1376.5,2244.5 1226.5,2244.5 1076.5,2244.5C 1076.17,2148.1 1076.5,2051.76 1077.5,1955.5 Z"/></g>
<g><path style="opacity:1" fill="#d0dff2" d="M 2476.5,3123.5 C 2476.5,3235.83 2476.5,3348.17 2476.5,3460.5C 2475.83,3348 2475.17,3235.33 2474.5,3122.5C 2471.17,3119.83 2467.83,3117.17 2464.5,3114.5C 2463.61,3113.68 2463.28,3112.68 2463.5,3111.5C 2467.74,3110.73 2471.91,3109.73 2476,3108.5C 2476.5,3113.49 2476.67,3118.49 2476.5,3123.5 Z"/></g>
</svg>
