<?xml version="1.0" encoding="UTF-8"?>
<!DOCTYPE svg PUBLIC "-//W3C//DTD SVG 1.1//EN" "http://www.w3.org/Graphics/SVG/1.1/DTD/svg11.dtd">
<svg xmlns="http://www.w3.org/2000/svg" version="1.1" width="4096px" height="4096px" style="shape-rendering:geometricPrecision; text-rendering:geometricPrecision; image-rendering:optimizeQuality; fill-rule:evenodd; clip-rule:evenodd" xmlns:xlink="http://www.w3.org/1999/xlink">
<g><path style="opacity:0.998" fill="#3d8abe" d="M 2948.5,489.5 C 2948.5,531.833 2948.5,574.167 2948.5,616.5C 2948.5,766.167 2948.5,915.833 2948.5,1065.5C 2948.5,1093.5 2948.5,1121.5 2948.5,1149.5C 2948.5,1154.17 2948.5,1158.83 2948.5,1163.5C 2948.5,1168.17 2948.5,1172.83 2948.5,1177.5C 2948.83,1195.67 2948.5,1213.67 2947.5,1231.5C 2947.5,1176.17 2947.5,1120.83 2947.5,1065.5C 2947.5,1046.83 2947.5,1028.17 2947.5,1009.5C 2947.5,934.5 2947.5,859.5 2947.5,784.5C 2947.5,775.167 2947.5,765.833 2947.5,756.5C 2947.5,728.5 2947.5,700.5 2947.5,672.5C 2947.5,597.5 2947.5,522.5 2947.5,447.5C 2827.5,447.5 2707.5,447.5 2587.5,447.5C 2636.94,401.943 2686.6,356.609 2736.5,311.5C 2774.8,283.897 2816.47,277.731 2861.5,293C 2915.11,315.289 2943.94,355.455 2948,413.5C 2948.5,438.831 2948.67,464.164 2948.5,489.5 Z"/></g>
<g><path style="opacity:1" fill="#54b3f3" d="M 3410.5,487.5 C 3410.61,488.117 3410.94,488.617 3411.5,489C 3257.17,489.5 3102.83,489.667 2948.5,489.5C 2948.67,464.164 2948.5,438.831 2948,413.5C 2943.94,355.455 2915.11,315.289 2861.5,293C 2816.47,277.731 2774.8,283.897 2736.5,311.5C 2786.39,269.43 2844.05,251.93 2909.5,259C 2932.77,262.068 2955.11,268.401 2976.5,278C 3121.38,347.608 3266.05,417.441 3410.5,487.5 Z"/></g>
<g><path style="opacity:0.999" fill="#3a88bc" d="M 2587.5,447.5 C 2707.5,447.5 2827.5,447.5 2947.5,447.5C 2947.5,522.5 2947.5,597.5 2947.5,672.5C 2745.33,672.833 2543.33,672.5 2341.5,671.5C 2423.17,596.493 2505.17,521.826 2587.5,447.5 Z"/></g>
<g><path style="opacity:1" fill="#52b2f3" d="M 3410.5,487.5 C 3460.15,510.658 3509.48,534.324 3558.5,558.5C 3577.92,569.21 3597.92,578.877 3618.5,587.5C 3627.94,591.052 3636.94,595.385 3645.5,600.5C 3655.47,605.819 3665.47,611.152 3675.5,616.5C 3433.17,616.5 3190.83,616.5 2948.5,616.5C 2948.5,574.167 2948.5,531.833 2948.5,489.5C 3102.83,489.667 3257.17,489.5 3411.5,489C 3410.94,488.617 3410.61,488.117 3410.5,487.5 Z"/></g>
<g><path style="opacity:0.5" fill="#249ef0" d="M 3558.5,558.5 C 3578.81,567.658 3598.81,577.324 3618.5,587.5C 3597.92,578.877 3577.92,569.21 3558.5,558.5 Z"/></g>
<g><path style="opacity:0.751" fill="#249ef0" d="M 3645.5,600.5 C 3661.15,607.324 3676.48,614.657 3691.5,622.5C 3686.17,620.5 3680.83,618.5 3675.5,616.5C 3665.47,611.152 3655.47,605.819 3645.5,600.5 Z"/></g>
<g><path style="opacity:1" fill="#4db0f2" d="M 2948.5,616.5 C 3190.83,616.5 3433.17,616.5 3675.5,616.5C 3680.83,618.5 3686.17,620.5 3691.5,622.5C 3702.94,627.052 3713.94,632.386 3724.5,638.5C 3795.07,678.246 3835.24,738.579 3845,819.5C 3845.5,901.499 3845.67,983.499 3845.5,1065.5C 3546.5,1065.5 3247.5,1065.5 2948.5,1065.5C 2948.5,915.833 2948.5,766.167 2948.5,616.5 Z"/></g>
<g><path style="opacity:0.975" fill="#1f9cf0" d="M 3724.5,638.5 C 3785.63,670.156 3824.8,719.489 3842,786.5C 3844.41,796.714 3846.08,807.047 3847,817.5C 3847.67,1637.5 3847.67,2457.5 3847,3277.5C 3840.67,3335.65 3816.17,3384.49 3773.5,3424C 3766.89,3429.79 3759.89,3434.96 3752.5,3439.5C 3758.8,3434.54 3764.8,3429.2 3770.5,3423.5C 3813.65,3383.53 3838.49,3334.19 3845,3275.5C 3845.5,3193.83 3845.67,3112.17 3845.5,3030.5C 3845.5,2993.17 3845.5,2955.83 3845.5,2918.5C 3845.5,2908.83 3845.5,2899.17 3845.5,2889.5C 3845.5,2885.17 3845.5,2880.83 3845.5,2876.5C 3845.5,2796.83 3845.5,2717.17 3845.5,2637.5C 3845.5,2487.83 3845.5,2338.17 3845.5,2188.5C 3845.5,2132.17 3845.5,2075.83 3845.5,2019.5C 3845.5,1963.5 3845.5,1907.5 3845.5,1851.5C 3845.5,1832.83 3845.5,1814.17 3845.5,1795.5C 3845.5,1683.17 3845.5,1570.83 3845.5,1458.5C 3845.5,1364.83 3845.5,1271.17 3845.5,1177.5C 3845.5,1172.83 3845.5,1168.17 3845.5,1163.5C 3845.5,1158.83 3845.5,1154.17 3845.5,1149.5C 3845.5,1121.5 3845.5,1093.5 3845.5,1065.5C 3845.67,983.499 3845.5,901.499 3845,819.5C 3835.24,738.579 3795.07,678.246 3724.5,638.5 Z"/></g>
<g><path style="opacity:0.999" fill="#3786bb" d="M 2341.5,671.5 C 2543.33,672.5 2745.33,672.833 2947.5,672.5C 2947.5,700.5 2947.5,728.5 2947.5,756.5C 2714.5,756.5 2481.5,756.5 2248.5,756.5C 2279.17,727.826 2310.17,699.493 2341.5,671.5 Z"/></g>
<g><path style="opacity:0.999" fill="#3786bc" d="M 2248.5,756.5 C 2481.5,756.5 2714.5,756.5 2947.5,756.5C 2947.5,765.833 2947.5,775.167 2947.5,784.5C 2704.5,784.5 2461.5,784.5 2218.5,784.5C 2228.17,774.828 2238.17,765.494 2248.5,756.5 Z"/></g>
<g><path style="opacity:0.999" fill="#3484ba" d="M 2218.5,784.5 C 2461.5,784.5 2704.5,784.5 2947.5,784.5C 2947.5,859.5 2947.5,934.5 2947.5,1009.5C 2622.33,1009.83 2297.33,1009.5 1972.5,1008.5C 2054.17,933.493 2136.17,858.826 2218.5,784.5 Z"/></g>
<g><path style="opacity:0.999" fill="#3283ba" d="M 1972.5,1008.5 C 2297.33,1009.5 2622.33,1009.83 2947.5,1009.5C 2947.5,1028.17 2947.5,1046.83 2947.5,1065.5C 2602,1065.83 2256.67,1065.5 1911.5,1064.5C 1931.21,1045.12 1951.54,1026.46 1972.5,1008.5 Z"/></g>
<g><path style="opacity:1" fill="#2e80b8" d="M 1911.5,1064.5 C 2256.67,1065.5 2602,1065.83 2947.5,1065.5C 2947.5,1120.83 2947.5,1176.17 2947.5,1231.5C 2947.5,1231.83 2947.5,1232.17 2947.5,1232.5C 2877.76,1285.58 2807.76,1338.24 2737.5,1390.5C 2732.05,1394.07 2726.72,1397.9 2721.5,1402C 2328,1402.83 1934.67,1402.67 1541.5,1401.5C 1664.41,1288.71 1787.75,1176.38 1911.5,1064.5 Z"/></g>
<g><path style="opacity:1" fill="#49aff3" d="M 2948.5,1065.5 C 3247.5,1065.5 3546.5,1065.5 3845.5,1065.5C 3845.5,1093.5 3845.5,1121.5 3845.5,1149.5C 3546.5,1149.5 3247.5,1149.5 2948.5,1149.5C 2948.5,1121.5 2948.5,1093.5 2948.5,1065.5 Z"/></g>
<g><path style="opacity:0.998" fill="#2d91d5" d="M 1020.5,1401.5 C 766.001,1402.5 511.334,1402.83 256.5,1402.5C 262.522,1381.78 272.689,1363.45 287,1347.5C 357.167,1283.33 427.333,1219.17 497.5,1155C 545.531,1115.83 598.531,1107.5 656.5,1130C 666.348,1134.53 675.682,1139.87 684.5,1146C 796.4,1231.41 908.4,1316.58 1020.5,1401.5 Z"/></g>
<g><path style="opacity:1" fill="#49aef3" d="M 2948.5,1149.5 C 3247.5,1149.5 3546.5,1149.5 3845.5,1149.5C 3845.5,1154.17 3845.5,1158.83 3845.5,1163.5C 3546.5,1163.5 3247.5,1163.5 2948.5,1163.5C 2948.5,1158.83 2948.5,1154.17 2948.5,1149.5 Z"/></g>
<g><path style="opacity:1" fill="#49aff3" d="M 2948.5,1163.5 C 3247.5,1163.5 3546.5,1163.5 3845.5,1163.5C 3845.5,1168.17 3845.5,1172.83 3845.5,1177.5C 3546.5,1177.5 3247.5,1177.5 2948.5,1177.5C 2948.5,1172.83 2948.5,1168.17 2948.5,1163.5 Z"/></g>
<g><path style="opacity:1" fill="#46adf2" d="M 2948.5,1177.5 C 3247.5,1177.5 3546.5,1177.5 3845.5,1177.5C 3845.5,1271.17 3845.5,1364.83 3845.5,1458.5C 3546.5,1458.5 3247.5,1458.5 2948.5,1458.5C 2948.83,1383 2948.5,1307.66 2947.5,1232.5C 2947.5,1232.17 2947.5,1231.83 2947.5,1231.5C 2948.5,1213.67 2948.83,1195.67 2948.5,1177.5 Z"/></g>
<g><path style="opacity:1" fill="#297db6" d="M 2737.5,1390.5 C 2628.74,1474.26 2519.41,1557.26 2409.5,1639.5C 2051.87,1640.5 1694.21,1640.83 1336.5,1640.5C 1326.06,1633.24 1315.73,1625.74 1305.5,1618C 1304.26,1617.31 1304.26,1616.81 1305.5,1616.5C 1384.17,1544.83 1462.83,1473.17 1541.5,1401.5C 1934.67,1402.67 2328,1402.83 2721.5,1402C 2726.72,1397.9 2732.05,1394.07 2737.5,1390.5 Z"/></g>
<g><path style="opacity:1" fill="#2a8fd4" d="M 1020.5,1401.5 C 1069.56,1438.03 1118.23,1475.03 1166.5,1512.5C 1166.61,1513.12 1166.94,1513.62 1167.5,1514C 866.5,1514.5 565.5,1514.67 264.5,1514.5C 249.105,1482.22 245.272,1448.55 253,1413.5C 253.904,1409.63 255.07,1405.96 256.5,1402.5C 511.334,1402.83 766.001,1402.5 1020.5,1401.5 Z"/></g>
<g><path style="opacity:1" fill="#41abf2" d="M 2948.5,1458.5 C 3247.5,1458.5 3546.5,1458.5 3845.5,1458.5C 3845.5,1570.83 3845.5,1683.17 3845.5,1795.5C 3546.5,1795.5 3247.5,1795.5 2948.5,1795.5C 2948.5,1683.17 2948.5,1570.83 2948.5,1458.5 Z"/></g>
<g><path style="opacity:0.999" fill="#278ed3" d="M 1166.5,1512.5 C 1212.86,1547.2 1259.19,1581.87 1305.5,1616.5C 1304.26,1616.81 1304.26,1617.31 1305.5,1618C 1315.73,1625.74 1326.06,1633.24 1336.5,1640.5C 1342.52,1645.85 1348.85,1650.85 1355.5,1655.5C 1361.66,1660.41 1367.99,1665.08 1374.5,1669.5C 1404.5,1692.5 1434.5,1715.5 1464.5,1738.5C 1142,1739.5 819.334,1739.83 496.5,1739.5C 430.704,1680.21 365.037,1620.71 299.5,1561C 284.925,1547.6 273.259,1532.1 264.5,1514.5C 565.5,1514.67 866.5,1514.5 1167.5,1514C 1166.94,1513.62 1166.61,1513.12 1166.5,1512.5 Z"/></g>
<g><path style="opacity:1" fill="#267bb5" d="M 2409.5,1639.5 C 2401.46,1646.21 2393.12,1652.54 2384.5,1658.5C 2385.29,1657.21 2386.29,1656.04 2387.5,1655C 2043.33,1654.17 1699.33,1654.33 1355.5,1655.5C 1348.85,1650.85 1342.52,1645.85 1336.5,1640.5C 1694.21,1640.83 2051.87,1640.5 2409.5,1639.5 Z"/></g>
<g><path style="opacity:1" fill="#267cb5" d="M 1355.5,1655.5 C 1699.33,1654.33 2043.33,1654.17 2387.5,1655C 2386.29,1656.04 2385.29,1657.21 2384.5,1658.5C 2381.07,1662.26 2377.07,1665.26 2372.5,1667.5C 2371.24,1667.46 2370.24,1667.96 2369.5,1669C 2037.83,1669.5 1706.17,1669.67 1374.5,1669.5C 1367.99,1665.08 1361.66,1660.41 1355.5,1655.5 Z"/></g>
<g><path style="opacity:1" fill="#267bb5" d="M 2372.5,1667.5 C 2341.41,1692.26 2309.74,1716.26 2277.5,1739.5C 2007.33,1739.17 1737.33,1739.5 1467.5,1740.5C 1466.5,1739.83 1465.5,1739.17 1464.5,1738.5C 1434.5,1715.5 1404.5,1692.5 1374.5,1669.5C 1706.17,1669.67 2037.83,1669.5 2369.5,1669C 2370.24,1667.96 2371.24,1667.46 2372.5,1667.5 Z"/></g>
<g><path style="opacity:1" fill="#228bd2" d="M 1464.5,1738.5 C 1465.5,1739.17 1466.5,1739.83 1467.5,1740.5C 1602.5,1843.33 1737.84,1945.66 1873.5,2047.5C 1884.83,2056.5 1896.17,2065.5 1907.5,2074.5C 1560.17,2076.5 1212.5,2077.17 864.5,2076.5C 853.537,2067.54 842.871,2058.21 832.5,2048.5C 831.118,2045.61 829.118,2043.11 826.5,2041C 716.005,1941 606.005,1840.5 496.5,1739.5C 819.334,1739.83 1142,1739.5 1464.5,1738.5 Z"/></g>
<g><path style="opacity:1" fill="#237ab4" d="M 1467.5,1740.5 C 1737.33,1739.5 2007.33,1739.17 2277.5,1739.5C 2142.83,1842.17 2008.17,1944.83 1873.5,2047.5C 1737.84,1945.66 1602.5,1843.33 1467.5,1740.5 Z"/></g>
<g><path style="opacity:1" fill="#3eaaf2" d="M 2948.5,1795.5 C 3247.5,1795.5 3546.5,1795.5 3845.5,1795.5C 3845.5,1814.17 3845.5,1832.83 3845.5,1851.5C 3546.5,1851.5 3247.5,1851.5 2948.5,1851.5C 2948.5,1832.83 2948.5,1814.17 2948.5,1795.5 Z"/></g>
<g><path style="opacity:1" fill="#3da9f2" d="M 2948.5,1851.5 C 3247.5,1851.5 3546.5,1851.5 3845.5,1851.5C 3845.5,1907.5 3845.5,1963.5 3845.5,2019.5C 3546.5,2019.5 3247.5,2019.5 2948.5,2019.5C 2948.5,1963.5 2948.5,1907.5 2948.5,1851.5 Z"/></g>
<g><path style="opacity:1" fill="#3aa8f2" d="M 2948.5,2019.5 C 3247.5,2019.5 3546.5,2019.5 3845.5,2019.5C 3845.5,2075.83 3845.5,2132.17 3845.5,2188.5C 3546.5,2188.5 3247.5,2188.5 2948.5,2188.5C 2948.5,2132.17 2948.5,2075.83 2948.5,2019.5 Z"/></g>
<g><path style="opacity:0.997" fill="#1e77b3" d="M 832.5,2048.5 C 842.871,2058.21 853.537,2067.54 864.5,2076.5C 904.896,2114.57 945.896,2151.9 987.5,2188.5C 991.527,2193.19 995.86,2197.53 1000.5,2201.5C 888.5,2202.83 776.5,2202.83 664.5,2201.5C 720.474,2150.53 776.474,2099.53 832.5,2048.5 Z"/></g>
<g><path style="opacity:1" fill="#1e89d1" d="M 1907.5,2074.5 C 1956.41,2110.45 2004.74,2147.12 2052.5,2184.5C 2052.94,2186.07 2053.94,2187.24 2055.5,2188C 1699.5,2188.5 1343.5,2188.67 987.5,2188.5C 945.896,2151.9 904.896,2114.57 864.5,2076.5C 1212.5,2077.17 1560.17,2076.5 1907.5,2074.5 Z"/></g>
<g><path style="opacity:1" fill="#1a87d1" d="M 2052.5,2184.5 C 2176.43,2277.43 2299.76,2371.1 2422.5,2465.5C 2423.29,2466.79 2424.29,2467.96 2425.5,2469C 2048.83,2469.5 1672.17,2469.67 1295.5,2469.5C 1295.17,2469.5 1294.83,2469.5 1294.5,2469.5C 1212.49,2394.16 1130.16,2319.16 1047.5,2244.5C 1032.16,2229.83 1016.49,2215.49 1000.5,2201.5C 995.86,2197.53 991.527,2193.19 987.5,2188.5C 1343.5,2188.67 1699.5,2188.5 2055.5,2188C 2053.94,2187.24 2052.94,2186.07 2052.5,2184.5 Z"/></g>
<g><path style="opacity:1" fill="#35a5f1" d="M 2948.5,2188.5 C 3247.5,2188.5 3546.5,2188.5 3845.5,2188.5C 3845.5,2338.17 3845.5,2487.83 3845.5,2637.5C 3546.5,2637.5 3247.5,2637.5 2948.5,2637.5C 2948.5,2487.83 2948.5,2338.17 2948.5,2188.5 Z"/></g>
<g><path style="opacity:0.999" fill="#1d76b3" d="M 664.5,2201.5 C 776.5,2202.83 888.5,2202.83 1000.5,2201.5C 1016.49,2215.49 1032.16,2229.83 1047.5,2244.5C 904.167,2244.5 760.833,2244.5 617.5,2244.5C 632.841,2229.83 648.508,2215.49 664.5,2201.5 Z"/></g>
<g><path style="opacity:0.999" fill="#1a74b1" d="M 617.5,2244.5 C 760.833,2244.5 904.167,2244.5 1047.5,2244.5C 1130.16,2319.16 1212.49,2394.16 1294.5,2469.5C 987,2469.83 679.666,2469.5 372.5,2468.5C 453.936,2393.61 535.603,2318.94 617.5,2244.5 Z"/></g>
<g><path style="opacity:1" fill="#1672b0" d="M 372.5,2468.5 C 679.666,2469.5 987,2469.83 1294.5,2469.5C 1294.83,2469.5 1295.17,2469.5 1295.5,2469.5C 1298,2472.83 1301,2475.67 1304.5,2478C 1303.94,2478.38 1303.61,2478.88 1303.5,2479.5C 1184.5,2569.5 1065.5,2659.5 946.5,2749.5C 727.5,2749.5 508.5,2749.5 289.5,2749.5C 252.43,2707.54 240.93,2659.21 255,2604.5C 261.535,2582.75 272.202,2563.42 287,2546.5C 315.071,2519.92 343.571,2493.92 372.5,2468.5 Z"/></g>
<g><path style="opacity:1" fill="#1585d0" d="M 2422.5,2465.5 C 2568.07,2574.74 2713.07,2684.74 2857.5,2795.5C 2860.97,2798.8 2864.64,2801.97 2868.5,2805C 2467.17,2805.5 2065.83,2805.67 1664.5,2805.5C 1544.57,2697.08 1425.07,2588.08 1306,2478.5C 1305.33,2479.25 1304.5,2479.59 1303.5,2479.5C 1303.61,2478.88 1303.94,2478.38 1304.5,2478C 1301,2475.67 1298,2472.83 1295.5,2469.5C 1672.17,2469.67 2048.83,2469.5 2425.5,2469C 2424.29,2467.96 2423.29,2466.79 2422.5,2465.5 Z"/></g>
<g><path style="opacity:1" fill="#2fa3f1" d="M 2948.5,2637.5 C 3247.5,2637.5 3546.5,2637.5 3845.5,2637.5C 3845.5,2717.17 3845.5,2796.83 3845.5,2876.5C 3546.5,2876.5 3247.5,2876.5 2948.5,2876.5C 2948.77,2871.74 2948.44,2867.07 2947.5,2862.5C 2948.5,2787.67 2948.83,2712.67 2948.5,2637.5 Z"/></g>
<g><path style="opacity:0.998" fill="#116fae" d="M 289.5,2749.5 C 508.5,2749.5 727.5,2749.5 946.5,2749.5C 856.594,2818.47 766.261,2886.97 675.5,2955C 620.015,2986.15 565.348,2984.81 511.5,2951C 503.5,2944.33 495.5,2937.67 487.5,2931C 421.237,2870.72 355.237,2810.22 289.5,2749.5 Z"/></g>
<g><path style="opacity:1" fill="#0f82cf" d="M 2857.5,2795.5 C 2887.48,2817.81 2917.48,2840.14 2947.5,2862.5C 2948.44,2867.07 2948.77,2871.74 2948.5,2876.5C 2948.5,2880.83 2948.5,2885.17 2948.5,2889.5C 2948.5,2899.17 2948.5,2908.83 2948.5,2918.5C 2948.5,2955.83 2948.5,2993.17 2948.5,3030.5C 2948.5,3161.5 2948.5,3292.5 2948.5,3423.5C 2948.83,3509.67 2948.5,3595.67 2947.5,3681.5C 2947.5,3646.83 2947.5,3612.17 2947.5,3577.5C 2947.5,3544.83 2947.5,3512.17 2947.5,3479.5C 2947.5,3367.17 2947.5,3254.83 2947.5,3142.5C 2947.5,3133.17 2947.5,3123.83 2947.5,3114.5C 2632.83,3114.5 2318.17,3114.5 2003.5,3114.5C 1890.17,3011.84 1777.17,2908.84 1664.5,2805.5C 2065.83,2805.67 2467.17,2805.5 2868.5,2805C 2864.64,2801.97 2860.97,2798.8 2857.5,2795.5 Z"/></g>
<g><path style="opacity:1" fill="#2ea2f1" d="M 2948.5,2876.5 C 3247.5,2876.5 3546.5,2876.5 3845.5,2876.5C 3845.5,2880.83 3845.5,2885.17 3845.5,2889.5C 3546.5,2889.5 3247.5,2889.5 2948.5,2889.5C 2948.5,2885.17 2948.5,2880.83 2948.5,2876.5 Z"/></g>
<g><path style="opacity:1" fill="#2ea3f1" d="M 2948.5,2889.5 C 3247.5,2889.5 3546.5,2889.5 3845.5,2889.5C 3845.5,2899.17 3845.5,2908.83 3845.5,2918.5C 3546.5,2918.5 3247.5,2918.5 2948.5,2918.5C 2948.5,2908.83 2948.5,2899.17 2948.5,2889.5 Z"/></g>
<g><path style="opacity:1" fill="#2ca2f1" d="M 2948.5,2918.5 C 3247.5,2918.5 3546.5,2918.5 3845.5,2918.5C 3845.5,2955.83 3845.5,2993.17 3845.5,3030.5C 3546.5,3030.5 3247.5,3030.5 2948.5,3030.5C 2948.5,2993.17 2948.5,2955.83 2948.5,2918.5 Z"/></g>
<g><path style="opacity:1" fill="#28a0f0" d="M 2948.5,3030.5 C 3247.5,3030.5 3546.5,3030.5 3845.5,3030.5C 3845.67,3112.17 3845.5,3193.83 3845,3275.5C 3838.49,3334.19 3813.65,3383.53 3770.5,3423.5C 3496.5,3423.5 3222.5,3423.5 2948.5,3423.5C 2948.5,3292.5 2948.5,3161.5 2948.5,3030.5 Z"/></g>
<g><path style="opacity:0.999" fill="#0d80cf" d="M 2003.5,3114.5 C 2318.17,3114.5 2632.83,3114.5 2947.5,3114.5C 2947.5,3123.83 2947.5,3133.17 2947.5,3142.5C 2642.83,3142.5 2338.17,3142.5 2033.5,3142.5C 2023.17,3133.51 2013.17,3124.17 2003.5,3114.5 Z"/></g>
<g><path style="opacity:0.999" fill="#097fcd" d="M 2033.5,3142.5 C 2338.17,3142.5 2642.83,3142.5 2947.5,3142.5C 2947.5,3254.83 2947.5,3367.17 2947.5,3479.5C 2766.17,3479.5 2584.83,3479.5 2403.5,3479.5C 2280.14,3367.14 2156.81,3254.8 2033.5,3142.5 Z"/></g>
<g><path style="opacity:1" fill="#239eef" d="M 2948.5,3423.5 C 3222.5,3423.5 3496.5,3423.5 3770.5,3423.5C 3764.8,3429.2 3758.8,3434.54 3752.5,3439.5C 3747.09,3444.38 3741.09,3448.55 3734.5,3452C 3520.6,3555.12 3306.6,3657.95 3092.5,3760.5C 3035,3760.83 2977.66,3760.5 2920.5,3759.5C 2938.22,3736.67 2947.22,3710.67 2947.5,3681.5C 2948.5,3595.67 2948.83,3509.67 2948.5,3423.5 Z"/></g>
<g><path style="opacity:0.999" fill="#057ccd" d="M 2403.5,3479.5 C 2584.83,3479.5 2766.17,3479.5 2947.5,3479.5C 2947.5,3512.17 2947.5,3544.83 2947.5,3577.5C 2801.83,3577.5 2656.17,3577.5 2510.5,3577.5C 2474.6,3545.06 2438.94,3512.39 2403.5,3479.5 Z"/></g>
<g><path style="opacity:0.999" fill="#037bcc" d="M 2510.5,3577.5 C 2656.17,3577.5 2801.83,3577.5 2947.5,3577.5C 2947.5,3612.17 2947.5,3646.83 2947.5,3681.5C 2947.22,3710.67 2938.22,3736.67 2920.5,3759.5C 2883.74,3802.03 2837.74,3817.53 2782.5,3806C 2765.93,3800.88 2750.59,3793.38 2736.5,3783.5C 2660.84,3715.17 2585.51,3646.51 2510.5,3577.5 Z"/></g>
<g><path style="opacity:0.998" fill="#1f9bef" d="M 2920.5,3759.5 C 2977.66,3760.5 3035,3760.83 3092.5,3760.5C 3048.74,3782.71 3004.41,3803.88 2959.5,3824C 2884.02,3849.17 2813.69,3839.17 2748.5,3794C 2744.31,3790.63 2740.31,3787.13 2736.5,3783.5C 2750.59,3793.38 2765.93,3800.88 2782.5,3806C 2837.74,3817.53 2883.74,3802.03 2920.5,3759.5 Z"/></g>
</svg>
