<?xml version="1.0" standalone="no"?>
<!DOCTYPE svg PUBLIC "-//W3C//DTD SVG 20010904//EN"
 "http://www.w3.org/TR/2001/REC-SVG-20010904/DTD/svg10.dtd">
<svg version="1.0" xmlns="http://www.w3.org/2000/svg"
 width="2304.000000pt" height="3456.000000pt" viewBox="0 0 2304.000000 3456.000000"
 preserveAspectRatio="xMidYMid meet">
<metadata>
Created by potrace 1.16, written by Peter Selinger 2001-2019
</metadata>
<g transform="translate(0.000000,3456.000000) scale(0.100000,-0.100000)"
fill="#000000" stroke="none">
<path d="M16694 22116 c-21 -18 -56 -58 -77 -89 l-39 -56 24 -35 c31 -45 62
-69 146 -113 37 -19 73 -40 80 -46 30 -24 88 -163 98 -232 2 -16 12 -82 23
-145 11 -63 22 -142 26 -175 3 -33 12 -82 20 -110 7 -27 16 -70 20 -95 4 -25
16 -92 27 -150 21 -107 23 -171 15 -580 -2 -120 15 -240 34 -240 4 0 4 11 1
25 -4 13 -4 82 0 152 17 323 20 454 9 539 -6 49 -13 173 -16 275 -3 102 -10
210 -14 240 -5 29 -6 59 -4 66 3 7 0 20 -7 28 -6 8 -9 19 -5 25 4 6 1 17 -5
25 -8 9 -10 28 -6 49 5 24 3 35 -6 38 -10 4 -10 8 -1 19 18 22 10 128 -14 173
-12 23 -41 53 -73 75 -71 48 -92 78 -92 132 -1 32 6 55 26 83 14 21 26 42 26
47 0 11 -35 44 -84 80 -51 38 -83 37 -132 -5z"/>
<path d="M12350 21874 c-14 -2 -83 -11 -155 -19 -180 -22 -265 -36 -265 -44 0
-4 -11 -8 -26 -9 -14 -1 -34 -6 -44 -12 -10 -5 -27 -10 -36 -10 -10 0 -27 -9
-38 -19 -34 -31 -117 -71 -150 -72 -26 0 -28 -2 -11 -8 11 -5 23 -7 28 -4 4 2
7 -1 7 -6 0 -6 -6 -11 -14 -11 -8 0 -21 -6 -28 -13 -7 -7 -21 -16 -30 -20 -10
-3 -18 -15 -18 -26 0 -12 -11 -28 -25 -37 -14 -9 -22 -20 -19 -26 3 -5 -2 -18
-11 -28 -23 -25 -13 -50 17 -43 18 4 20 2 8 -6 -21 -15 -5 -24 18 -10 11 7 28
9 38 5 16 -6 16 -9 4 -16 -9 -6 -10 -10 -3 -10 6 0 15 5 18 10 4 7 12 7 24 0
10 -5 22 -6 26 -2 4 4 6 0 3 -8 -3 -8 -12 -14 -21 -14 -19 2 -11 -24 9 -28 10
-2 0 -19 -31 -55 -25 -28 -45 -54 -45 -58 0 -3 -18 -27 -39 -53 -21 -26 -41
-56 -45 -67 -6 -23 8 -53 18 -37 4 7 19 7 43 0 56 -15 186 -10 235 8 24 8 51
18 61 21 22 7 16 29 -6 27 -9 -1 -15 2 -12 6 3 5 -8 11 -25 15 -17 4 -28 11
-24 16 3 5 -2 9 -10 9 -8 0 -18 5 -21 10 -7 12 14 44 23 35 3 -3 13 7 23 21
23 36 161 159 242 217 85 61 179 105 241 113 48 7 49 7 43 -17 -45 -197 -45
-235 4 -336 37 -76 132 -168 193 -185 62 -17 264 -16 306 1 48 20 125 85 159
135 48 70 69 142 72 247 2 52 7 99 11 105 22 29 161 -40 226 -112 41 -44 51
-63 56 -103 6 -43 9 -48 27 -44 11 3 31 0 44 -7 13 -7 30 -10 39 -7 9 4 28
-10 51 -39 21 -25 43 -43 50 -40 7 2 18 -1 24 -7 8 -8 11 -8 11 1 0 7 5 12 10
12 6 0 10 -7 10 -15 0 -8 -5 -15 -11 -15 -5 0 -7 -5 -3 -11 4 -8 12 -2 21 15
14 27 37 34 49 15 4 -7 20 -8 41 -4 21 4 40 2 48 -5 8 -7 19 -9 25 -5 16 10
41 -20 27 -34 -8 -8 -7 -11 5 -11 9 0 20 5 24 11 3 6 17 8 29 5 15 -4 29 0 39
9 8 9 21 14 28 13 18 -4 11 34 -9 49 -8 6 -12 16 -9 22 3 5 -11 15 -31 21 -39
11 -107 39 -178 71 -22 10 -98 43 -170 75 -276 121 -330 145 -399 184 -83 45
-216 84 -364 105 -152 22 -348 7 -597 -45 -58 -12 -119 -36 -123 -49 -2 -6
-17 -11 -33 -11 -16 0 -29 -4 -29 -8 0 -9 -103 -33 -142 -33 -16 0 -28 -4 -28
-10 0 -5 -13 -3 -30 6 -31 16 -37 29 -20 40 6 3 10 15 10 26 0 10 6 19 13 19
8 0 28 16 46 35 17 19 38 35 46 35 7 0 20 6 28 14 8 8 27 17 43 19 26 5 61 16
119 37 20 8 125 31 225 50 208 39 627 9 790 -56 19 -8 63 -20 98 -28 35 -8 69
-19 75 -24 7 -5 26 -13 44 -16 17 -4 56 -22 87 -41 31 -19 65 -36 75 -40 10
-3 26 -14 36 -25 10 -11 23 -20 29 -20 6 0 27 -11 47 -24 39 -26 162 -93 195
-106 23 -9 64 19 64 43 0 7 -4 6 -10 -3 -8 -12 -10 -12 -10 5 0 52 -240 196
-415 249 -323 98 -444 116 -785 121 -140 2 -266 2 -280 -1z"/>
<path d="M16410 21739 c-49 -76 -83 -165 -75 -200 4 -16 2 -29 -3 -29 -15 0
-24 -97 -12 -120 6 -11 15 -18 20 -15 5 3 11 1 15 -5 3 -5 11 -10 17 -10 13 0
1 50 -18 71 -17 19 -9 29 25 29 19 0 22 -3 13 -12 -7 -7 -12 -19 -12 -27 0
-11 5 -10 21 5 12 10 24 17 28 15 3 -3 8 4 10 14 2 13 -1 16 -14 12 -9 -4 -13
-3 -10 2 3 5 -1 11 -10 13 -27 6 0 28 38 30 20 2 37 6 37 10 0 4 14 23 30 42
17 19 27 37 21 40 -15 10 -19 67 -4 73 7 3 13 13 13 22 0 20 -40 61 -58 61 -7
0 -12 7 -12 15 0 31 -29 14 -60 -36z"/>
<path d="M8110 21748 c-187 -12 -236 -17 -382 -43 -159 -29 -223 -48 -325 -98
-154 -75 -243 -157 -293 -270 -18 -42 -37 -77 -42 -77 -14 0 -9 -40 6 -46 24
-9 98 31 154 84 28 28 52 54 52 59 0 29 197 194 280 235 100 49 272 93 415
107 337 31 559 18 579 -35 9 -23 -16 -26 -100 -14 -182 26 -473 -7 -529 -60
-14 -13 -25 -18 -25 -12 0 7 -9 12 -20 12 -11 0 -20 -3 -20 -7 0 -5 -17 -9
-37 -11 -20 -1 -41 -6 -47 -11 -6 -5 -36 -16 -67 -25 -31 -9 -65 -26 -74 -36
-10 -11 -23 -20 -29 -20 -23 -1 -140 -66 -150 -84 -6 -11 -26 -33 -44 -50 -19
-16 -108 -104 -198 -194 -117 -117 -164 -171 -164 -187 0 -13 -6 -26 -12 -29
-7 -3 4 -5 24 -3 21 1 43 -4 50 -11 29 -29 165 0 205 44 12 13 26 24 30 24 4
0 22 20 38 45 20 30 39 48 58 52 25 5 26 7 12 23 -18 20 -19 43 -4 72 11 20
12 20 26 -13 11 -27 16 -31 23 -19 5 8 10 25 10 38 0 12 14 52 30 89 42 92
125 171 223 212 127 52 256 77 271 52 3 -5 -8 -38 -24 -74 -77 -164 -52 -315
74 -441 30 -29 79 -66 110 -80 53 -25 60 -26 118 -16 33 6 84 13 112 16 77 6
104 14 111 32 5 13 8 14 14 3 11 -17 71 -5 71 14 0 7 11 27 25 43 14 16 41 65
62 107 31 66 36 88 37 149 1 39 -3 88 -7 109 -6 29 -5 37 7 37 23 0 164 -99
171 -120 4 -11 11 -20 16 -20 5 0 33 -23 62 -51 28 -27 53 -45 55 -40 6 17 32
13 32 -4 0 -8 -4 -15 -10 -15 -5 0 -10 -6 -10 -12 0 -7 -6 -24 -13 -38 -7 -14
-14 -38 -15 -54 -3 -36 -19 -57 -38 -49 -8 3 -14 1 -14 -5 0 -15 98 -34 118
-23 9 5 40 12 67 16 28 4 58 14 67 22 17 15 17 17 0 30 -16 14 -16 14 1 9 23
-7 22 7 -6 63 -30 58 -67 116 -106 161 -16 19 -27 38 -25 42 3 4 25 -4 49 -17
68 -38 71 -33 23 41 -31 48 -115 134 -130 134 -5 0 -8 6 -8 13 -1 14 -45 67
-57 67 -11 0 -69 30 -104 53 -14 9 -37 18 -52 19 -15 1 -27 6 -27 10 0 4 -17
10 -37 15 -48 9 -44 8 -74 21 -15 6 -38 9 -52 8 -14 -2 -25 1 -24 6 1 5 -14
11 -34 13 -19 2 -39 5 -45 6 -5 1 -17 -1 -27 -6 -9 -4 -23 -3 -30 2 -6 6 -50
11 -97 13 -47 1 -101 3 -120 4 -19 0 -82 -2 -140 -6z"/>
<path d="M16252 21186 c-6 -13 -38 -136 -72 -273 -33 -136 -68 -265 -75 -286
-21 -53 -19 -84 7 -105 81 -63 114 -134 134 -282 2 -19 9 -71 15 -115 20 -150
2 -212 -113 -389 -40 -60 -87 -144 -105 -185 -33 -76 -58 -171 -51 -193 2 -6
23 -17 46 -23 34 -11 44 -10 62 2 11 8 29 11 40 8 12 -4 20 -2 20 5 0 6 5 8
10 5 20 -12 75 48 78 85 2 19 13 47 23 62 11 15 26 44 33 66 17 49 60 144 87
195 22 41 31 71 31 100 -1 9 2 17 6 17 4 0 13 9 20 21 10 15 10 24 2 34 -6 7
-9 25 -6 40 6 31 -17 96 -49 140 -12 17 -25 39 -29 49 -3 10 -9 16 -12 13 -9
-8 -75 63 -68 74 3 5 11 8 17 7 7 -1 26 5 42 15 17 9 26 16 21 17 -5 0 -3 7 4
15 9 10 9 15 1 15 -6 0 3 14 20 32 17 18 33 45 36 59 3 17 10 26 18 23 20 -8
27 13 14 37 -10 20 -9 21 11 16 17 -4 28 1 42 19 11 13 23 24 28 24 16 0 121
-114 126 -137 4 -13 10 -21 14 -18 11 7 40 -22 40 -39 0 -7 7 -13 15 -13 11 0
13 9 10 35 -3 20 -10 39 -16 43 -8 5 -6 15 9 36 16 23 18 33 9 42 -9 9 -9 14
3 21 8 5 11 10 7 10 -4 0 -2 10 4 22 23 43 20 94 -12 180 -17 45 -34 101 -36
123 -2 22 -11 54 -19 72 -8 17 -14 37 -14 45 0 32 -58 68 -215 135 -44 19 -93
47 -110 62 -32 30 -76 61 -86 61 -3 0 -11 -11 -17 -24z"/>
<path d="M16002 19105 c-12 -12 -22 -30 -22 -39 0 -9 -6 -16 -14 -16 -8 0 -20
-17 -27 -37 -6 -21 -14 -42 -18 -48 -3 -5 -6 -14 -6 -20 -2 -19 -16 -70 -24
-86 -5 -8 -7 -27 -6 -42 2 -15 -1 -27 -5 -27 -5 0 -8 -17 -6 -37 2 -21 -1 -44
-7 -50 -5 -7 -7 -13 -4 -13 3 0 1 -15 -4 -32 -5 -18 -12 -49 -14 -68 -3 -19
-16 -66 -31 -105 -27 -73 -36 -115 -35 -152 0 -13 -4 -23 -9 -23 -6 0 -10 -9
-10 -20 0 -11 5 -20 11 -20 8 0 7 -5 -1 -15 -9 -11 -10 -19 -2 -27 12 -12 15
-9 90 60 26 23 51 42 55 42 5 0 7 6 4 14 -3 8 0 19 7 25 8 7 12 32 10 71 -1
43 2 60 11 60 8 0 16 -6 18 -12 4 -9 6 -8 6 3 1 8 -4 20 -10 26 -7 7 -7 13 -1
17 6 3 13 2 17 -4 3 -5 22 -10 41 -10 36 0 40 9 35 68 -1 12 3 22 9 22 5 0 10
8 10 17 0 9 3 14 6 10 7 -6 34 17 34 29 0 4 -7 12 -17 19 -17 13 -10 35 12 35
12 0 12 4 0 27 -12 23 -12 30 -1 43 8 8 16 31 17 50 2 19 7 38 12 41 4 3 1 18
-6 32 -15 28 -30 27 -20 -1 4 -13 0 -12 -17 4 -23 23 -20 44 6 44 9 0 14 6 11
13 -2 6 -11 11 -20 11 -13 -1 -14 2 -6 18 8 15 8 19 0 14 -6 -4 -11 0 -11 9 0
9 -4 13 -10 10 -5 -3 -10 -1 -10 5 0 7 6 10 14 7 27 -11 37 18 16 41 -11 12
-20 25 -20 29 0 18 -37 10 -58 -12z"/>
<path d="M11420 18929 c0 -10 4 -20 9 -24 5 -3 10 -18 10 -33 2 -49 4 -62 12
-62 4 0 7 -10 8 -22 1 -38 9 -100 20 -157 22 -108 7 -245 -36 -341 -22 -50
-98 -140 -118 -140 -7 0 -16 -7 -19 -16 -3 -9 -11 -14 -18 -12 -7 3 -20 -3
-30 -11 -10 -9 -21 -15 -24 -13 -3 2 -15 -3 -27 -11 -13 -8 -41 -15 -64 -15
-37 -1 -43 3 -73 44 -19 27 -38 43 -46 40 -7 -3 -16 -1 -19 4 -4 6 -16 10 -27
10 -11 0 -27 8 -34 18 -13 16 -14 16 -8 -1 6 -17 5 -18 -17 -5 -13 7 -27 18
-32 25 -4 6 -28 15 -52 19 -37 5 -45 10 -46 28 0 11 -3 15 -6 9 -2 -7 -12 -13
-22 -13 -9 0 -22 -5 -29 -12 -9 -9 -12 -8 -12 5 0 23 -16 21 -40 -3 -11 -11
-27 -20 -35 -20 -9 0 -15 -6 -14 -12 3 -23 -1 -38 -8 -37 -32 5 -53 -3 -53
-20 0 -14 -11 -23 -37 -31 -21 -7 -51 -18 -68 -25 -16 -7 -38 -15 -47 -19 -10
-3 -18 -15 -18 -28 0 -18 -2 -20 -9 -9 -8 12 -12 12 -25 2 -9 -7 -27 -11 -41
-9 -26 5 -28 1 -28 -54 0 -10 -4 -18 -9 -18 -5 0 -6 -5 -3 -10 3 -6 -1 -13 -9
-16 -9 -3 -16 -10 -16 -16 0 -5 5 -6 10 -3 6 3 10 0 10 -8 0 -8 -11 -17 -25
-19 -13 -3 -22 -2 -20 2 3 5 -2 11 -11 14 -22 8 -24 8 -24 -7 0 -20 -84 -15
-88 5 -2 9 2 19 7 23 19 11 13 38 -6 30 -10 -4 -22 -7 -28 -6 -5 1 -79 3 -162
5 -124 3 -153 1 -153 -10 0 -21 4 -29 13 -26 11 3 9 -16 -3 -23 -5 -3 -10 -1
-10 5 0 7 -8 9 -21 5 -16 -5 -19 -4 -14 5 5 9 1 10 -14 5 -16 -5 -34 1 -61 19
-22 14 -44 26 -49 26 -4 0 -48 37 -96 83 -48 45 -99 87 -113 94 -33 15 -112
17 -112 3 0 -5 -11 -10 -25 -10 -23 0 -25 -3 -19 -27 4 -16 11 -33 16 -40 12
-15 2 -33 -19 -33 -15 0 -14 -2 0 -18 10 -10 17 -23 17 -29 0 -6 24 -28 53
-49 50 -37 133 -69 260 -100 57 -14 120 -48 160 -85 11 -10 24 -16 29 -13 4 3
8 0 8 -5 0 -6 6 -11 13 -11 8 0 18 -10 23 -21 7 -15 21 -22 44 -24 19 -2 39
-10 45 -19 7 -9 17 -16 23 -16 6 0 15 -6 19 -14 18 -32 211 -78 237 -57 10 8
16 9 21 2 4 -7 15 -5 33 7 14 9 23 11 19 5 -5 -8 -3 -13 7 -13 9 0 16 -4 16
-9 0 -12 98 8 135 27 16 9 34 16 38 17 5 0 14 8 21 18 7 9 18 17 24 17 6 0 13
9 17 20 7 20 63 60 87 60 8 0 19 5 25 11 7 7 34 20 60 30 26 9 72 26 100 37
29 11 72 23 95 27 24 4 48 11 54 16 6 5 31 13 55 18 24 6 62 14 84 20 22 5 78
12 123 15 51 3 93 11 107 20 14 9 31 16 40 16 8 0 15 4 15 9 0 5 15 14 33 20
40 14 146 125 176 186 13 26 25 73 28 108 3 34 10 70 14 79 5 10 5 19 0 22 -8
5 -14 104 -12 199 0 21 -5 51 -13 65 -7 15 -11 33 -9 40 6 17 -28 124 -45 141
-8 8 -11 24 -7 38 3 15 1 25 -9 29 -7 3 -16 23 -20 44 -5 35 -9 39 -36 38 -22
-1 -30 -6 -30 -19z"/>
<path d="M12491 16860 c-13 -11 -38 -20 -58 -20 -18 0 -52 -9 -75 -21 -25 -13
-49 -18 -64 -15 -17 5 -36 -2 -65 -24 -23 -16 -48 -30 -54 -30 -7 0 -15 -6
-18 -13 -13 -35 -166 -84 -287 -93 -60 -4 -90 -9 -120 -22 -14 -5 -29 -7 -35
-3 -11 8 -49 7 -115 -3 -64 -10 -160 -12 -160 -4 0 4 -53 7 -117 7 -65 0 -135
2 -155 4 -30 3 -39 0 -44 -15 -6 -21 -24 -24 -24 -4 0 16 -40 25 -95 21 -22
-1 -44 2 -48 9 -6 8 -10 8 -14 -1 -7 -18 -26 -16 -20 1 4 10 1 13 -9 9 -8 -3
-24 2 -37 10 -19 12 -26 12 -40 2 -15 -10 -26 -10 -65 1 -50 16 -72 13 -72 -9
0 -8 -7 -20 -15 -27 -13 -11 -16 -8 -21 18 -6 28 -10 31 -45 30 -25 0 -53 -10
-76 -25 -28 -19 -42 -22 -67 -17 -40 10 -56 7 -82 -17 -11 -10 -28 -19 -38
-19 -9 0 -27 -11 -40 -25 -20 -22 -31 -25 -86 -23 -36 1 -68 7 -75 15 -8 7
-18 13 -23 13 -6 0 -23 6 -39 14 -15 8 -59 21 -98 30 -38 9 -73 22 -77 29 -19
30 -234 24 -304 -9 -17 -8 -35 -14 -40 -12 -5 1 -34 -4 -64 -12 -30 -7 -65
-13 -78 -12 -13 1 -33 -3 -44 -9 -11 -6 -35 -13 -52 -14 -64 -6 -212 -17 -248
-19 -21 0 -38 -4 -38 -9 0 -12 -54 5 -63 20 -4 7 -15 13 -23 13 -8 0 -23 5
-34 10 -11 6 -29 15 -40 20 -11 6 -27 10 -35 10 -8 0 -15 9 -15 21 0 11 -4 18
-9 14 -5 -3 -12 -1 -16 5 -7 11 -33 9 -52 -3 -8 -5 -13 -4 -13 2 0 14 -47 14
-55 1 -3 -5 -18 -10 -32 -10 -13 0 -39 -10 -55 -22 -24 -17 -34 -19 -48 -10
-15 9 -23 6 -44 -15 -26 -26 -26 -49 1 -39 8 3 11 1 8 -4 -3 -5 5 -21 19 -35
14 -14 25 -28 23 -32 -1 -3 6 -7 16 -9 11 -1 17 4 17 17 0 23 16 25 28 3 7
-13 15 -14 45 -6 21 6 37 6 39 1 2 -5 17 -5 38 1 44 13 133 4 174 -17 34 -17
118 -74 126 -85 13 -18 105 -59 108 -49 2 7 14 5 34 -5 28 -15 30 -15 25 0 -7
18 8 22 19 5 4 -8 9 -7 15 2 6 11 12 11 33 0 20 -11 28 -11 40 -2 14 12 126
14 136 2 16 -19 89 -47 106 -40 21 8 47 4 111 -17 24 -8 87 -16 141 -19 147
-7 224 -14 309 -31 220 -41 240 -42 398 -24 55 6 111 12 125 13 14 1 32 10 41
19 9 10 27 18 40 18 38 0 201 17 234 25 58 13 159 45 169 54 6 4 40 11 75 15
35 3 70 11 76 16 7 6 46 10 86 8 41 -1 99 1 129 5 147 19 160 20 177 6 13 -11
17 -11 20 -1 3 6 10 9 16 5 5 -3 35 -7 66 -7 46 -1 57 -5 66 -22 5 -11 16 -19
22 -17 10 4 9 8 -2 20 -13 12 -13 16 -1 29 19 18 76 19 76 0 0 -22 37 -27 43
-5 3 11 13 19 24 19 10 1 33 14 52 30 19 16 37 27 41 25 3 -2 24 13 46 33 21
20 45 37 53 38 8 2 18 10 23 18 5 9 15 16 22 16 8 0 16 7 20 15 3 8 17 15 31
15 28 0 85 26 97 44 5 7 8 8 8 0 0 -6 27 3 60 18 33 16 70 30 83 31 12 0 42
16 66 34 24 18 47 33 51 33 19 0 -17 48 -45 60 -16 7 -32 16 -35 19 -8 9 -49
31 -57 31 -5 -1 -19 -10 -32 -20z"/>
<path d="M15826 15918 c-14 -24 -30 -65 -36 -92 -6 -27 -19 -56 -29 -65 -10
-9 -21 -25 -25 -36 -3 -11 -19 -29 -36 -40 -17 -11 -30 -29 -30 -40 0 -11 -11
-29 -24 -39 -14 -10 -28 -31 -31 -47 -4 -16 -13 -29 -21 -29 -9 0 -12 -5 -8
-12 4 -7 3 -8 -4 -4 -11 7 -54 -28 -50 -41 2 -10 -29 -83 -36 -83 -3 0 -1 11
4 25 9 24 8 25 -12 14 -18 -10 -20 -9 -15 4 4 11 2 14 -9 10 -7 -3 -15 -9 -15
-14 -3 -20 -5 -24 -12 -36 -5 -7 -26 -13 -49 -13 -32 0 -39 -3 -34 -15 5 -13
2 -14 -17 -4 -12 6 -19 8 -15 4 5 -5 -1 -14 -11 -21 -14 -10 -18 -22 -14 -49
5 -40 -14 -76 -29 -53 -6 11 -10 10 -17 -1 -6 -9 -11 -10 -15 -2 -10 15 -46
14 -46 -1 0 -7 -17 -27 -37 -46 -31 -27 -35 -36 -27 -50 9 -13 8 -21 -3 -31
-8 -7 -17 -10 -21 -6 -3 3 0 10 8 15 8 5 11 12 7 16 -13 13 -30 -14 -30 -46 0
-25 -4 -30 -21 -28 -13 2 -20 -2 -18 -10 1 -8 -2 -11 -8 -7 -5 3 -10 13 -10
21 0 11 -4 12 -19 4 -11 -5 -30 -10 -43 -11 -13 0 -17 -3 -10 -6 23 -9 12 -23
-13 -17 -17 4 -25 2 -25 -7 0 -7 -3 -10 -6 -6 -4 3 -20 -1 -37 -10 -25 -13
-32 -13 -36 -2 -2 7 -16 24 -30 38 l-25 26 -10 -27 c-10 -29 -21 -35 -31 -18
-3 5 -12 7 -20 3 -8 -3 -15 0 -15 6 0 6 -4 11 -10 11 -5 0 -9 -3 -9 -7 4 -26
-3 -35 -12 -15 -11 30 -34 23 -34 -10 0 -20 -3 -24 -20 -20 -11 3 -26 10 -34
16 -11 8 -13 8 -7 -1 5 -9 -1 -13 -18 -13 -16 0 -26 -6 -26 -15 0 -8 -6 -15
-14 -15 -7 0 -24 -10 -37 -22 -14 -13 -36 -22 -49 -21 -27 1 -66 -32 -71 -62
-5 -21 -39 -30 -39 -9 0 17 -5 17 -30 4 -12 -6 -16 -17 -13 -30 3 -11 0 -20
-6 -20 -6 0 -11 -6 -11 -13 0 -6 -15 -19 -32 -26 -18 -8 -50 -25 -70 -39 -21
-13 -44 -22 -53 -18 -8 3 -15 1 -15 -4 0 -5 -11 -12 -25 -16 -14 -3 -25 -10
-25 -16 0 -17 -52 -78 -62 -72 -5 3 -20 -2 -34 -11 -13 -9 -29 -13 -34 -10 -6
3 -10 -3 -10 -14 0 -11 -5 -23 -12 -27 -7 -5 -9 -2 -6 8 4 10 0 14 -15 13 -12
-1 -24 -8 -25 -16 -4 -15 -135 -129 -149 -129 -13 0 -42 -37 -36 -44 4 -3 -5
-6 -20 -6 -14 0 -30 -7 -35 -16 -5 -9 -12 -15 -16 -15 -9 2 -56 -29 -86 -56
-14 -13 -29 -23 -35 -23 -6 0 -17 -9 -25 -20 -8 -11 -18 -20 -23 -20 -5 0 -23
-12 -41 -26 -17 -14 -53 -41 -81 -59 -53 -37 -196 -136 -230 -159 -41 -29
-235 -152 -282 -179 -26 -15 -75 -44 -108 -64 -279 -165 -531 -284 -805 -377
-129 -44 -178 -57 -350 -91 -147 -29 -157 -31 -245 -39 -33 -3 -89 -8 -125
-12 -71 -7 -465 -6 -545 1 -27 3 -84 8 -125 11 -41 3 -101 9 -133 14 -32 5
-64 6 -73 3 -8 -3 -21 0 -29 7 -9 8 -29 10 -49 7 -18 -3 -38 -1 -43 4 -6 6
-44 15 -84 20 -41 6 -79 15 -86 21 -7 5 -27 11 -45 13 -73 9 -119 18 -124 26
-3 5 -14 9 -24 9 -26 0 -150 40 -175 57 -11 7 -27 13 -37 13 -32 0 -222 102
-283 151 -11 9 -36 25 -55 35 -19 10 -47 31 -62 47 -15 15 -34 27 -41 27 -8 0
-28 15 -45 33 -44 47 -86 83 -105 90 -10 3 -17 10 -17 15 0 5 -24 34 -52 65
-61 63 -78 84 -78 93 0 14 -242 245 -253 241 -21 -7 -28 -78 -16 -161 6 -45
14 -103 18 -131 4 -27 10 -55 14 -61 4 -6 9 -45 12 -85 4 -41 11 -94 16 -119
11 -49 82 -241 124 -336 15 -33 53 -120 85 -194 87 -204 162 -347 224 -425 31
-38 64 -86 75 -105 10 -19 55 -69 98 -110 44 -41 99 -103 124 -137 25 -34 79
-92 120 -130 40 -37 117 -108 169 -158 120 -113 164 -143 242 -166 35 -10 116
-36 181 -59 108 -37 125 -40 201 -37 121 4 231 50 336 139 103 87 440 313 578
387 59 32 161 89 227 127 66 37 147 81 180 97 33 16 134 70 225 120 91 50 203
110 250 133 47 24 126 68 175 98 50 30 128 76 175 102 47 26 96 55 110 64 14
10 50 31 80 48 30 16 138 76 240 132 102 56 237 127 300 157 332 159 509 259
787 444 72 49 189 123 260 165 300 180 426 264 558 374 53 45 267 198 337 242
15 10 109 94 209 188 100 94 250 227 333 296 167 140 314 297 366 395 31 59
41 115 23 128 -13 10 -63 117 -63 135 0 19 -63 139 -88 169 -22 25 -28 22 -56
-25z"/>
<path d="M16845 13468 c-51 -99 -101 -169 -199 -283 -291 -334 -748 -789
-1166 -1159 -97 -86 -105 -113 -10 -36 25 20 70 52 101 72 30 20 62 44 69 53
8 10 41 35 75 58 33 22 79 56 102 76 44 39 141 112 232 176 32 22 87 65 122
95 36 30 85 71 109 90 166 132 351 322 453 467 64 91 148 262 166 335 13 55
15 148 3 148 -5 0 -30 -42 -57 -92z"/>
<path d="M9144 11816 c-33 -12 -72 -29 -87 -38 -14 -10 -32 -18 -39 -18 -7 0
-33 -14 -58 -30 -25 -16 -50 -30 -56 -30 -36 0 -256 -214 -284 -276 -10 -23
-23 -45 -29 -48 -12 -8 -65 -85 -88 -129 -20 -39 -71 -106 -98 -128 -11 -9
-41 -59 -68 -110 -26 -52 -92 -155 -147 -229 -117 -158 -198 -264 -286 -374
-22 -28 -48 -65 -56 -83 -14 -28 -14 -34 -1 -52 15 -22 42 -27 59 -13 5 5 25
15 44 22 19 8 69 39 110 70 41 30 85 62 96 70 12 8 41 29 65 46 24 17 54 34
67 38 20 7 22 4 22 -36 -1 -48 -8 -83 -40 -178 -57 -167 -104 -289 -130 -331
-15 -25 -31 -56 -35 -70 -4 -13 -22 -58 -40 -99 -18 -41 -41 -95 -51 -120 -10
-25 -25 -56 -35 -70 -9 -14 -20 -41 -24 -60 -4 -19 -22 -64 -40 -100 -18 -36
-35 -76 -39 -90 -3 -14 -21 -51 -41 -84 -19 -32 -35 -63 -35 -68 0 -27 -57
-110 -90 -132 -24 -16 -51 -49 -75 -93 -37 -67 -38 -70 -39 -181 l-1 -112 -51
-68 c-29 -37 -64 -92 -79 -122 -15 -30 -38 -69 -50 -86 -13 -17 -35 -59 -49
-94 -15 -35 -35 -73 -45 -84 -21 -23 -53 -92 -65 -141 -4 -16 -24 -52 -45 -80
-21 -27 -44 -61 -51 -75 -20 -39 -124 -172 -160 -205 -18 -16 -46 -50 -63 -75
-17 -25 -57 -72 -89 -106 -32 -33 -82 -90 -110 -126 -29 -36 -78 -97 -109
-135 -66 -80 -215 -299 -248 -363 -13 -25 -31 -54 -41 -65 -11 -11 -35 -56
-55 -100 -20 -44 -46 -93 -59 -110 -12 -16 -37 -66 -55 -110 -19 -44 -42 -91
-51 -105 -10 -14 -28 -54 -40 -90 -13 -36 -38 -93 -57 -127 -18 -34 -33 -68
-33 -75 0 -7 -22 -60 -49 -118 -27 -58 -63 -139 -81 -180 -18 -41 -53 -120
-77 -175 -25 -55 -64 -147 -88 -205 -24 -58 -71 -166 -105 -240 -34 -74 -79
-178 -100 -230 -21 -52 -75 -184 -119 -293 -45 -109 -88 -222 -95 -251 -8 -29
-23 -71 -34 -92 -10 -22 -34 -84 -52 -139 -18 -55 -36 -104 -40 -110 -4 -5
-22 -55 -40 -109 -18 -55 -38 -109 -45 -120 -7 -12 -20 -48 -28 -82 -9 -33
-30 -91 -46 -128 -17 -36 -31 -73 -31 -81 0 -8 -12 -45 -26 -82 -53 -136 -206
-569 -234 -663 -11 -36 -31 -96 -44 -135 -91 -260 -244 -746 -282 -898 -25
-100 -60 -231 -79 -292 -18 -60 -37 -130 -43 -155 -35 -150 -65 -275 -83 -345
-11 -44 -31 -125 -43 -180 -12 -55 -27 -109 -33 -120 -6 -11 -14 -47 -18 -80
-4 -33 -18 -97 -31 -143 -13 -45 -24 -92 -24 -105 0 -12 -11 -57 -25 -100 -13
-42 -29 -104 -35 -137 -6 -33 -17 -80 -24 -105 l-14 -45 1594 0 1594 0 5 22
c3 13 14 75 24 138 71 426 173 952 221 1135 22 83 67 263 101 400 65 265 125
454 185 582 80 173 127 318 179 558 18 84 23 101 79 280 38 124 49 167 76 304
31 163 34 197 41 466 1 17 7 50 15 75 7 25 22 79 33 120 11 41 38 138 59 215
22 77 53 190 70 250 47 168 184 579 301 900 32 88 82 228 111 310 71 207 117
330 144 395 13 30 27 66 31 80 4 14 21 56 37 94 28 65 83 216 182 506 24 69
56 184 71 255 15 72 38 166 50 210 13 44 26 113 30 154 3 40 11 85 17 100 5
14 12 52 14 83 2 32 14 104 28 160 30 126 56 281 56 334 0 21 7 59 16 84 12
35 15 80 12 215 l-3 170 32 65 c74 149 114 192 345 361 124 92 187 153 289
279 88 109 208 225 399 387 103 87 266 172 460 241 85 30 122 48 234 116 33
20 65 36 70 36 24 0 116 54 122 72 3 11 -5 36 -19 61 -33 57 -134 248 -170
322 -16 33 -48 89 -72 125 -48 74 -179 291 -238 395 -22 39 -55 93 -74 122
-38 60 -51 64 -203 63 -52 0 -106 1 -120 2 -14 0 -43 0 -65 -1 -22 -1 -114 3
-205 8 -91 6 -221 10 -290 10 -69 0 -147 5 -175 10 -27 6 -117 13 -200 15
-168 6 -192 10 -200 37 -11 34 51 127 148 222 67 65 77 94 48 139 -25 40 -66
88 -75 88 -4 0 -22 16 -42 35 -40 41 -60 42 -150 11z"/>
</g>
</svg>
