<?xml version="1.0" standalone="no"?>
<!DOCTYPE svg PUBLIC "-//W3C//DTD SVG 20010904//EN"
 "http://www.w3.org/TR/2001/REC-SVG-20010904/DTD/svg10.dtd">
<svg version="1.0" xmlns="http://www.w3.org/2000/svg"
 width="400.000000pt" height="400.000000pt" viewBox="0 0 400.000000 400.000000"
 preserveAspectRatio="xMidYMid meet">
<metadata>
Created by potrace 1.16, written by Peter Selinger 2001-2019
</metadata>
<g transform="translate(0.000000,400.000000) scale(0.100000,-0.100000)"
fill="#000000" stroke="none">
<path d="M2989 3253 c-1 -5 0 -23 1 -41 1 -18 -3 -39 -9 -46 -9 -10 -8 -15 4
-20 8 -3 15 -13 15 -21 0 -9 -5 -13 -10 -10 -6 4 -7 11 -4 17 4 6 2 8 -4 5
-10 -7 -11 -24 -1 -42 4 -5 7 -27 7 -47 1 -27 -3 -38 -13 -38 -8 0 -15 -5 -15
-11 0 -5 3 -8 8 -6 4 3 13 -2 21 -10 12 -13 11 -14 -8 -8 -20 6 -22 3 -19 -30
2 -35 13 -53 25 -42 3 3 1 12 -3 19 -13 20 -13 38 -2 38 6 0 8 -6 5 -13 -3 -7
1 -21 9 -31 17 -24 10 -36 -16 -29 -12 3 -20 2 -19 -3 1 -5 0 -11 -1 -14 -6
-16 -7 -41 -2 -35 4 4 7 11 7 17 0 6 7 12 15 13 10 2 16 -5 16 -16 0 -11 -5
-19 -10 -19 -5 0 -7 -3 -3 -6 3 -3 2 -17 -3 -30 -6 -16 -6 -24 1 -24 7 0 8
-11 4 -30 -6 -28 -5 -30 25 -30 l31 0 -3 242 c-2 183 -6 242 -16 246 -6 2 -10
8 -6 13 3 5 0 9 -6 9 -6 0 -8 5 -5 10 3 6 1 10 -5 10 -6 0 -8 5 -5 10 3 6 4
10 1 10 -3 0 -6 -3 -7 -7z"/>
<path d="M1330 2944 l0 -77 50 5 c62 6 90 29 90 74 0 45 -38 74 -96 74 l-44 0
0 -76z"/>
<path d="M2242 2997 c-57 -60 8 -154 80 -116 31 16 38 28 38 66 0 65 -75 96
-118 50z"/>
<path d="M726 2181 c15 -14 223 -151 229 -151 3 0 5 36 5 80 l0 80 -122 0
c-70 0 -118 -4 -112 -9z"/>
<path d="M2980 2180 c14 -9 7 -14 -13 -11 -4 1 -3 -7 3 -18 14 -26 13 -31 -6
-31 -9 0 -12 5 -8 12 5 7 3 8 -6 3 -11 -7 -9 -12 8 -23 23 -15 31 -54 11 -49
-17 3 -19 -31 -2 -37 8 -3 11 -11 7 -17 -4 -8 -9 -7 -15 2 -4 7 -11 10 -15 6
-4 -4 1 -16 11 -27 11 -12 16 -30 13 -49 -2 -17 0 -33 6 -35 6 -2 4 -5 -6 -5
-9 -1 -19 5 -21 12 -3 6 -6 2 -6 -11 -1 -13 3 -21 8 -18 5 3 11 -1 14 -9 4 -9
1 -12 -9 -8 -20 8 -18 -36 4 -60 14 -17 15 -19 1 -15 -9 4 -16 1 -16 -8 0 -7
5 -10 11 -7 6 4 5 0 -2 -9 -10 -13 -10 -17 5 -22 10 -4 13 -10 8 -14 -12 -9
-13 -35 -2 -43 11 -8 17 -60 6 -53 -5 3 -9 -2 -9 -11 0 -9 4 -14 9 -11 5 4 7
-3 4 -14 -4 -16 -8 -18 -19 -9 -11 9 -13 4 -8 -31 4 -29 3 -40 -4 -36 -12 7
-8 -32 4 -43 4 -3 4 2 1 11 -10 27 7 29 20 2 6 -13 8 -24 4 -24 -4 0 -7 -10
-7 -22 1 -13 -5 -23 -11 -24 -26 -3 -28 -5 -13 -14 11 -7 12 -10 2 -10 -8 0
-12 -6 -9 -12 2 -7 0 -21 -5 -32 -7 -13 -7 -16 1 -12 6 4 14 0 17 -8 3 -9 11
-13 17 -9 6 3 7 1 3 -6 -4 -6 -11 -9 -16 -6 -5 3 -12 -4 -15 -16 -5 -14 -1
-25 11 -34 14 -9 16 -16 7 -26 -5 -8 -10 -22 -10 -32 0 -15 3 -15 24 5 31 29
61 78 67 109 3 13 5 177 5 364 l1 340 120 79 c66 43 120 80 120 82 0 2 -71 4
-157 4 -106 0 -153 -4 -143 -10z"/>
</g>
</svg>
