<?xml version="1.0" encoding="UTF-8"?>
<!DOCTYPE svg PUBLIC "-//W3C//DTD SVG 1.1//EN" "http://www.w3.org/Graphics/SVG/1.1/DTD/svg11.dtd">
<svg xmlns="http://www.w3.org/2000/svg" version="1.1" width="1024px" height="1024px" style="shape-rendering:geometricPrecision; text-rendering:geometricPrecision; image-rendering:optimizeQuality; fill-rule:evenodd; clip-rule:evenodd" xmlns:xlink="http://www.w3.org/1999/xlink">
<g><path style="opacity:0.988" fill="#2f302f" d="M 663.5,235.5 C 665.527,235.338 667.527,235.505 669.5,236C 685.673,245.254 702.006,254.254 718.5,263C 721.667,264.833 724.167,267.333 726,270.5C 726.667,355.5 726.667,440.5 726,525.5C 724.923,528.913 722.756,531.413 719.5,533C 691.67,548.747 664.003,564.747 636.5,581C 631.072,583.994 625.739,583.661 620.5,580C 592.997,563.747 565.33,547.747 537.5,532C 536.333,530.833 535.167,529.667 534,528.5C 532.346,491.918 532.013,455.251 533,418.5C 534.122,416.376 535.622,414.543 537.5,413C 566.663,396.586 595.663,379.919 624.5,363C 627.5,362.333 630.5,362.333 633.5,363C 641.329,367.08 648.996,371.413 656.5,376C 657.784,376.684 658.951,376.517 660,375.5C 661.323,329.583 661.99,283.583 662,237.5C 662.717,236.956 663.217,236.289 663.5,235.5 Z M 627.5,436.5 C 638.799,441.568 649.633,447.568 660,454.5C 660.833,466.847 660.666,479.18 659.5,491.5C 649.398,497.301 639.231,502.967 629,508.5C 618.355,503.012 608.022,497.012 598,490.5C 597.333,478.5 597.333,466.5 598,454.5C 608.005,448.637 617.838,442.637 627.5,436.5 Z"/></g>
<g><path style="opacity:0.983" fill="#2f302f" d="M 154.5,359.5 C 159.287,358.97 163.62,360.137 167.5,363C 194.167,378.333 220.833,393.667 247.5,409C 249.96,410.458 252.127,412.291 254,414.5C 255.65,456.107 255.983,497.774 255,539.5C 254.667,545.5 254.333,551.5 254,557.5C 251.757,559.282 249.257,559.782 246.5,559C 230.329,549.414 213.996,540.08 197.5,531C 195.04,529.542 192.873,527.709 191,525.5C 189.696,501.563 189.029,477.563 189,453.5C 187.833,451 186,449.167 183.5,448C 175.006,443.338 166.506,438.838 158,434.5C 148.128,439.186 138.628,444.519 129.5,450.5C 128.416,451.665 127.583,452.998 127,454.5C 126.98,478.254 126.314,501.921 125,525.5C 123.5,527 122,528.5 120.5,530C 103.337,539.414 86.3375,549.08 69.5,559C 66.3201,560.036 63.8201,559.203 62,556.5C 61.3333,509.5 61.3333,462.5 62,415.5C 63.5,412.667 65.6667,410.5 68.5,409C 97.3927,392.726 126.059,376.226 154.5,359.5 Z"/></g>
<g><path style="opacity:0.985" fill="#2f302f" d="M 863.5,360.5 C 867.44,360.758 871.107,361.924 874.5,364C 902.5,380.333 930.5,396.667 958.5,413C 959.701,413.903 960.535,415.069 961,416.5C 961.667,427.833 961.667,439.167 961,450.5C 960.535,451.931 959.701,453.097 958.5,454C 940.833,464.333 923.167,474.667 905.5,485C 902.331,485.978 899.497,485.478 897,483.5C 896.952,473.068 896.286,462.735 895,452.5C 885.582,446.874 876.082,441.374 866.5,436C 864.365,435.365 862.365,435.699 860.5,437C 851.585,442.041 842.751,447.207 834,452.5C 832.897,458.756 832.397,465.089 832.5,471.5C 832.376,477.605 832.876,483.605 834,489.5C 864.165,506.915 894.165,524.581 924,542.5C 924.895,545.466 924.395,548.133 922.5,550.5C 905.5,560 888.5,569.5 871.5,579C 866.343,581.168 861.343,580.835 856.5,578C 827.585,561.293 798.751,544.46 770,527.5C 768.845,508.921 768.345,490.254 768.5,471.5C 768.345,452.746 768.845,434.079 770,415.5C 800.576,396.075 831.742,377.742 863.5,360.5 Z"/></g>
<g><path style="opacity:1" fill="#50ac5e" d="M 396.5,361.5 C 396.833,362.833 397.167,364.167 397.5,365.5C 397.167,437.002 397.501,508.335 398.5,579.5C 397.791,580.404 396.791,580.737 395.5,580.5C 393.182,576.535 390.848,572.535 388.5,568.5C 389.499,500.002 389.833,431.335 389.5,362.5C 391.607,361.532 393.941,361.198 396.5,361.5 Z"/></g>
<g><path style="opacity:1" fill="#51af5e" d="M 389.5,362.5 C 389.833,431.335 389.499,500.002 388.5,568.5C 387.227,566.287 386.227,563.954 385.5,561.5C 385.832,495.998 385.499,430.665 384.5,365.5C 385.659,363.75 387.326,362.75 389.5,362.5 Z"/></g>
<g><path style="opacity:1" fill="#399a52" d="M 396.5,361.5 C 403.698,365.262 410.698,369.262 417.5,373.5C 415.972,373.517 415.472,374.184 416,375.5C 433.697,399.351 451.53,423.017 469.5,446.5C 468.167,449.167 466.833,451.833 465.5,454.5C 462.928,458.639 460.595,462.973 458.5,467.5C 455.35,463.881 452.684,459.881 450.5,455.5C 447.737,450.299 444.737,445.299 441.5,440.5C 441.611,439.883 441.944,439.383 442.5,439C 440.34,436.008 438.007,433.175 435.5,430.5C 432.013,423.526 428.013,416.86 423.5,410.5C 422.191,405.879 419.858,401.879 416.5,398.5C 414.336,393.5 411.669,388.833 408.5,384.5C 405.225,377.903 401.558,371.57 397.5,365.5C 397.167,364.167 396.833,362.833 396.5,361.5 Z"/></g>
<g><path style="opacity:1" fill="#52b15d" d="M 384.5,365.5 C 385.499,430.665 385.832,495.998 385.5,561.5C 383.412,559.664 382.079,557.331 381.5,554.5C 381.832,491.998 381.499,429.664 380.5,367.5C 381.514,366.326 382.847,365.66 384.5,365.5 Z"/></g>
<g><path style="opacity:0.999" fill="#4baa5c" d="M 397.5,365.5 C 401.558,371.57 405.225,377.903 408.5,384.5C 408.829,447.905 408.496,511.238 407.5,574.5C 404.76,576.56 401.76,578.226 398.5,579.5C 397.501,508.335 397.167,437.002 397.5,365.5 Z"/></g>
<g><path style="opacity:1" fill="#52b35b" d="M 380.5,367.5 C 381.499,429.664 381.832,491.998 381.5,554.5C 378.011,549.53 375.011,544.197 372.5,538.5C 372.832,482.997 372.499,427.664 371.5,372.5C 374.331,370.583 377.331,368.917 380.5,367.5 Z"/></g>
<g><path style="opacity:1" fill="#4eb558" d="M 371.5,372.5 C 372.499,427.664 372.832,482.997 372.5,538.5C 370.992,536.819 369.992,534.819 369.5,532.5C 369.5,479.5 369.5,426.5 369.5,373.5C 370.167,373.167 370.833,372.833 371.5,372.5 Z"/></g>
<g><path style="opacity:1" fill="#4cb656" d="M 369.5,373.5 C 369.5,426.5 369.5,479.5 369.5,532.5C 367.684,530.882 366.351,528.882 365.5,526.5C 366.833,476.5 366.833,426.5 365.5,376.5C 366.436,375.026 367.77,374.026 369.5,373.5 Z"/></g>
<g><path style="opacity:1" fill="#47b752" d="M 365.5,376.5 C 366.833,426.5 366.833,476.5 365.5,526.5C 363.642,524.117 362.308,521.45 361.5,518.5C 361.667,472.165 361.5,425.832 361,379.5C 360.329,380.252 359.496,380.586 358.5,380.5C 360.336,378.412 362.669,377.079 365.5,376.5 Z"/></g>
<g><path style="opacity:0.997" fill="#419f56" d="M 417.5,373.5 C 441.197,386.677 464.531,400.344 487.5,414.5C 481.515,425.132 475.515,435.798 469.5,446.5C 451.53,423.017 433.697,399.351 416,375.5C 415.472,374.184 415.972,373.517 417.5,373.5 Z"/></g>
<g><path style="opacity:1" fill="#41b84f" d="M 361.5,518.5 C 359.847,515.869 358.181,513.203 356.5,510.5C 357.172,467.264 357.838,423.931 358.5,380.5C 359.496,380.586 360.329,380.252 361,379.5C 361.5,425.832 361.667,472.165 361.5,518.5 Z"/></g>
<g><path style="opacity:0.999" fill="#3bb94b" d="M 358.5,380.5 C 357.838,423.931 357.172,467.264 356.5,510.5C 355.42,508.004 354.086,505.67 352.5,503.5C 353.167,483.836 353.5,464.003 353.5,444C 353.5,423.822 352.833,403.989 351.5,384.5C 353.336,382.412 355.669,381.079 358.5,380.5 Z"/></g>
<g><path style="opacity:1" fill="#35ba48" d="M 351.5,384.5 C 352.833,403.989 353.5,423.822 353.5,444C 353.5,464.003 353.167,483.836 352.5,503.5C 351.167,500.833 349.833,498.167 348.5,495.5C 349.829,458.931 349.829,422.264 348.5,385.5C 349.391,384.89 350.391,384.557 351.5,384.5 Z"/></g>
<g><path style="opacity:1" fill="#47a65a" d="M 408.5,384.5 C 411.669,388.833 414.336,393.5 416.5,398.5C 416.5,455.5 416.5,512.5 416.5,569.5C 413.669,571.417 410.669,573.083 407.5,574.5C 408.496,511.238 408.829,447.905 408.5,384.5 Z"/></g>
<g><path style="opacity:1" fill="#2ebb45" d="M 348.5,385.5 C 349.829,422.264 349.829,458.931 348.5,495.5C 347.248,493.999 346.248,492.332 345.5,490.5C 346.829,456.264 346.829,421.931 345.5,387.5C 346.29,386.599 347.29,385.932 348.5,385.5 Z"/></g>
<g><path style="opacity:0.999" fill="#25bc42" d="M 345.5,387.5 C 346.829,421.931 346.829,456.264 345.5,490.5C 344.42,488.004 343.086,485.67 341.5,483.5C 342.167,468.17 342.5,452.67 342.5,437C 342.499,421.152 341.833,405.652 340.5,390.5C 341.965,389.263 343.632,388.263 345.5,387.5 Z"/></g>
<g><path style="opacity:1" fill="#1cbd3f" d="M 340.5,390.5 C 341.833,405.652 342.499,421.152 342.5,437C 342.5,452.67 342.167,468.17 341.5,483.5C 340.167,480.833 338.833,478.167 337.5,475.5C 338.175,447.598 338.841,419.598 339.5,391.5C 339.5,390.833 339.833,390.5 340.5,390.5 Z"/></g>
<g><path style="opacity:0.999" fill="#09be3b" d="M 339.5,391.5 C 338.841,419.598 338.175,447.598 337.5,475.5C 336.525,473.205 335.192,471.205 333.5,469.5C 333.443,468.391 333.11,467.391 332.5,466.5C 333.171,442.764 333.838,418.931 334.5,395C 334.272,394.601 333.938,394.435 333.5,394.5C 335.181,392.992 337.181,391.992 339.5,391.5 Z"/></g>
<g><path style="opacity:0.998" fill="#00bf38" d="M 333.5,394.5 C 333.938,394.435 334.272,394.601 334.5,395C 333.838,418.931 333.171,442.764 332.5,466.5C 331.737,464.632 330.737,462.965 329.5,461.5C 327.656,457.136 325.323,453.136 322.5,449.5C 316.581,436.724 309.914,424.391 302.5,412.5C 312.634,406.263 322.967,400.263 333.5,394.5 Z"/></g>
<g><path style="opacity:1" fill="#42a458" d="M 416.5,398.5 C 419.858,401.879 422.191,405.879 423.5,410.5C 423.824,462.542 423.491,514.542 422.5,566.5C 420.5,567.5 418.5,568.5 416.5,569.5C 416.5,512.5 416.5,455.5 416.5,398.5 Z"/></g>
<g><path style="opacity:0.936" fill="#008735" d="M 487.5,414.5 C 488.793,415.842 489.626,417.509 490,419.5C 490.5,440.164 490.667,460.831 490.5,481.5C 490.167,481.5 489.833,481.5 489.5,481.5C 489.666,476.821 489.499,472.155 489,467.5C 481.454,463.977 473.954,460.311 466.5,456.5C 465.702,456.043 465.369,455.376 465.5,454.5C 466.833,451.833 468.167,449.167 469.5,446.5C 475.515,435.798 481.515,425.132 487.5,414.5 Z"/></g>
<g><path style="opacity:1" fill="#3da055" d="M 423.5,410.5 C 428.013,416.86 432.013,423.526 435.5,430.5C 435.168,473.003 435.501,515.337 436.5,557.5C 431.87,560.486 427.203,563.486 422.5,566.5C 423.491,514.542 423.824,462.542 423.5,410.5 Z"/></g>
<g><path style="opacity:1" fill="#0c9547" d="M 302.5,412.5 C 309.914,424.391 316.581,436.724 322.5,449.5C 314.293,445.23 305.96,441.23 297.5,437.5C 297.334,430.492 297.5,423.492 298,416.5C 299.049,414.616 300.549,413.282 302.5,412.5 Z"/></g>
<g><path style="opacity:0.999" fill="#309b50" d="M 435.5,430.5 C 438.007,433.175 440.34,436.008 442.5,439C 441.944,439.383 441.611,439.883 441.5,440.5C 440.839,478.515 441.506,516.181 443.5,553.5C 441.664,555.588 439.331,556.921 436.5,557.5C 435.501,515.337 435.168,473.003 435.5,430.5 Z"/></g>
<g><path style="opacity:1" fill="#019945" d="M 297.5,437.5 C 305.96,441.23 314.293,445.23 322.5,449.5C 325.323,453.136 327.656,457.136 329.5,461.5C 329.631,462.239 329.464,462.906 329,463.5C 318.554,458.36 308.054,453.36 297.5,448.5C 297.5,444.833 297.5,441.167 297.5,437.5 Z"/></g>
<g><path style="opacity:1" fill="#1c974b" d="M 441.5,440.5 C 444.737,445.299 447.737,450.299 450.5,455.5C 449.502,486.996 449.168,518.662 449.5,550.5C 447.784,552.025 445.784,553.025 443.5,553.5C 441.506,516.181 440.839,478.515 441.5,440.5 Z"/></g>
<g><path style="opacity:1" fill="#009b43" d="M 297.5,448.5 C 308.054,453.36 318.554,458.36 329,463.5C 329.464,462.906 329.631,462.239 329.5,461.5C 330.737,462.965 331.737,464.632 332.5,466.5C 333.11,467.391 333.443,468.391 333.5,469.5C 332.833,469.833 332.167,470.167 331.5,470.5C 320.013,465.891 308.679,460.891 297.5,455.5C 297.5,453.167 297.5,450.833 297.5,448.5 Z"/></g>
<g><path style="opacity:0.952" fill="#40a05e" d="M 862.5,449.5 C 870.156,451.575 877.322,454.908 884,459.5C 884.667,466.833 884.667,474.167 884,481.5C 877.978,485.679 871.644,489.345 865,492.5C 858.855,489.427 852.855,486.094 847,482.5C 846.333,474.833 846.333,467.167 847,459.5C 852.341,456.304 857.508,452.97 862.5,449.5 Z"/></g>
<g><path style="opacity:1" fill="#009f42" d="M 297.5,455.5 C 308.679,460.891 320.013,465.891 331.5,470.5C 329.197,477.11 325.863,483.11 321.5,488.5C 313.818,483.992 305.818,479.992 297.5,476.5C 297.5,469.5 297.5,462.5 297.5,455.5 Z"/></g>
<g><path style="opacity:1" fill="#008b3a" d="M 465.5,454.5 C 465.369,455.376 465.702,456.043 466.5,456.5C 473.954,460.311 481.454,463.977 489,467.5C 489.499,472.155 489.666,476.821 489.5,481.5C 489.657,482.873 489.49,484.207 489,485.5C 479.218,480.359 469.385,475.359 459.5,470.5C 458.89,469.609 458.557,468.609 458.5,467.5C 460.595,462.973 462.928,458.639 465.5,454.5 Z"/></g>
<g><path style="opacity:0.997" fill="#009243" d="M 450.5,455.5 C 452.684,459.881 455.35,463.881 458.5,467.5C 458.557,468.609 458.89,469.609 459.5,470.5C 458.824,495.402 458.158,520.402 457.5,545.5C 455.206,547.653 452.54,549.32 449.5,550.5C 449.168,518.662 449.502,486.996 450.5,455.5 Z"/></g>
<g><path style="opacity:0.99" fill="#008734" d="M 333.5,469.5 C 335.192,471.205 336.525,473.205 337.5,475.5C 338.833,478.167 340.167,480.833 341.5,483.5C 343.086,485.67 344.42,488.004 345.5,490.5C 346.248,492.332 347.248,493.999 348.5,495.5C 349.833,498.167 351.167,500.833 352.5,503.5C 354.086,505.67 355.42,508.004 356.5,510.5C 358.181,513.203 359.847,515.869 361.5,518.5C 362.308,521.45 363.642,524.117 365.5,526.5C 366.351,528.882 367.684,530.882 369.5,532.5C 369.992,534.819 370.992,536.819 372.5,538.5C 375.011,544.197 378.011,549.53 381.5,554.5C 382.079,557.331 383.412,559.664 385.5,561.5C 386.227,563.954 387.227,566.287 388.5,568.5C 390.848,572.535 393.182,576.535 395.5,580.5C 392.539,581.196 389.539,580.696 386.5,579C 360.758,563.601 334.758,548.601 308.5,534C 304.7,532.021 301.366,529.521 298.5,526.5C 299.376,526.631 300.043,526.298 300.5,525.5C 305.11,517.941 309.444,510.274 313.5,502.5C 316.559,498.096 319.225,493.429 321.5,488.5C 325.863,483.11 329.197,477.11 331.5,470.5C 332.167,470.167 332.833,469.833 333.5,469.5 Z"/></g>
<g><path style="opacity:1" fill="#008f40" d="M 459.5,470.5 C 469.385,475.359 479.218,480.359 489,485.5C 489.49,484.207 489.657,482.873 489.5,481.5C 489.833,481.5 490.167,481.5 490.5,481.5C 490.5,495.167 490.5,508.833 490.5,522.5C 483.181,510.536 475.848,498.536 468.5,486.5C 466.517,481.867 464.017,477.534 461,473.5C 460.178,496.906 460.345,520.239 461.5,543.5C 460.486,544.674 459.153,545.34 457.5,545.5C 458.158,520.402 458.824,495.402 459.5,470.5 Z"/></g>
<g><path style="opacity:0.999" fill="#008b3a" d="M 468.5,486.5 C 468.116,504.826 467.116,523.159 465.5,541.5C 464.167,542.167 462.833,542.833 461.5,543.5C 460.345,520.239 460.178,496.906 461,473.5C 464.017,477.534 466.517,481.867 468.5,486.5 Z"/></g>
<g><path style="opacity:1" fill="#00a53e" d="M 297.5,476.5 C 305.818,479.992 313.818,483.992 321.5,488.5C 319.225,493.429 316.559,498.096 313.5,502.5C 308.167,500.167 302.833,497.833 297.5,495.5C 297.5,489.167 297.5,482.833 297.5,476.5 Z"/></g>
<g><path style="opacity:0.986" fill="#008734" d="M 468.5,486.5 C 475.848,498.536 483.181,510.536 490.5,522.5C 489.871,525.64 488.204,528.14 485.5,530C 478.643,533.592 471.976,537.426 465.5,541.5C 467.116,523.159 468.116,504.826 468.5,486.5 Z"/></g>
<g><path style="opacity:1" fill="#00aa3b" d="M 297.5,495.5 C 302.833,497.833 308.167,500.167 313.5,502.5C 309.444,510.274 305.11,517.941 300.5,525.5C 300.043,526.298 299.376,526.631 298.5,526.5C 297.525,516.249 297.192,505.915 297.5,495.5 Z"/></g>
<g><path style="opacity:0.936" fill="#40a05e" d="M 503.5,564.5 C 508.483,564.412 513.149,565.579 517.5,568C 543.242,583.399 569.242,598.399 595.5,613C 601.004,615.84 604.171,620.34 605,626.5C 605.667,659.5 605.667,692.5 605,725.5C 603.432,732.737 599.266,737.904 592.5,741C 565.63,756.6 538.63,771.934 511.5,787C 507.074,787.791 502.741,787.457 498.5,786C 487.793,779.986 477.46,773.486 467.5,766.5C 472.737,763.882 478.07,761.215 483.5,758.5C 489.833,762.333 496.167,766.167 502.5,770C 504.365,771.301 506.365,771.635 508.5,771C 535.296,755.7 561.963,740.2 588.5,724.5C 589.667,692.505 589.833,660.505 589,628.5C 561.644,611.988 533.978,595.988 506,580.5C 478.931,596.286 451.764,611.953 424.5,627.5C 423.333,659.828 423.167,692.162 424,724.5C 431.915,728.874 439.748,733.374 447.5,738C 456.217,741.873 462.05,739.373 465,730.5C 465.5,698.502 465.667,666.502 465.5,634.5C 470.975,633.919 476.142,634.586 481,636.5C 481.667,668.5 481.667,700.5 481,732.5C 478.362,751.427 467.528,758.927 448.5,755C 435.182,749.593 422.682,742.759 411,734.5C 409.725,732.283 408.725,729.949 408,727.5C 407.333,693.167 407.333,658.833 408,624.5C 409.306,620.187 411.806,616.687 415.5,614C 444.791,597.159 474.124,580.659 503.5,564.5 Z"/></g>
<g><path style="opacity:0.751" fill="#40a05e" d="M 626.5,608.5 C 643.137,606.967 650.303,614.3 648,630.5C 642.898,639.426 635.398,642.259 625.5,639C 615.541,631.627 614.041,622.793 621,612.5C 623.015,611.303 624.849,609.97 626.5,608.5 Z M 640.5,633.5 C 633.564,638.192 627.397,637.192 622,630.5C 618.718,620.396 622.218,614.063 632.5,611.5C 644.186,613.871 647.686,620.538 643,631.5C 642.292,632.381 641.458,633.047 640.5,633.5 Z M 630.5,618.5 C 632.665,618.116 634.332,618.783 635.5,620.5C 634.332,622.217 632.665,622.884 630.5,622.5C 630.5,621.167 630.5,619.833 630.5,618.5 Z"/></g>
<g><path style="opacity:0.805" fill="#40a05e" d="M 640.5,633.5 C 638.833,633.5 637.167,633.5 635.5,633.5C 635.326,631.139 634.993,628.806 634.5,626.5C 633.167,626.5 631.833,626.5 630.5,626.5C 630.5,628.833 630.5,631.167 630.5,633.5C 629.167,633.5 627.833,633.5 626.5,633.5C 626.5,627.167 626.5,620.833 626.5,614.5C 630.876,614.114 635.043,614.781 639,616.5C 639.684,619.38 639.517,622.213 638.5,625C 639.117,627.884 639.784,630.717 640.5,633.5 Z M 630.5,618.5 C 630.5,619.833 630.5,621.167 630.5,622.5C 632.665,622.884 634.332,622.217 635.5,620.5C 634.332,618.783 632.665,618.116 630.5,618.5 Z"/></g>
<g><path style="opacity:0.942" fill="#40a05e" d="M 525.5,631.5 C 537.214,631.009 548.214,633.509 558.5,639C 565.694,645.219 569.194,653.053 569,662.5C 563.918,663.637 558.751,663.804 553.5,663C 551.833,654.667 546.833,649.667 538.5,648C 529.674,646.92 521.007,647.587 512.5,650C 506.452,654.484 506.119,659.151 511.5,664C 525.423,667.037 539.423,669.704 553.5,672C 570.902,677.641 576.402,689.141 570,706.5C 566.222,712.989 560.722,717.489 553.5,720C 538.538,724.148 523.538,724.148 508.5,720C 494.023,715.371 487.356,705.538 488.5,690.5C 493.5,689.167 498.5,689.167 503.5,690.5C 504.724,700.558 510.391,706.058 520.5,707C 527.5,707.667 534.5,707.667 541.5,707C 549.072,706.586 553.739,702.753 555.5,695.5C 555.06,692.786 553.726,690.62 551.5,689C 548.226,687.798 544.893,686.798 541.5,686C 529.351,684.815 517.351,682.815 505.5,680C 493.783,675.074 488.95,666.241 491,653.5C 492.654,645.022 497.487,639.189 505.5,636C 512.095,633.524 518.762,632.024 525.5,631.5 Z"/></g>
</svg>
