<?xml version="1.0" encoding="UTF-8"?>
<!DOCTYPE svg PUBLIC "-//W3C//DTD SVG 1.1//EN" "http://www.w3.org/Graphics/SVG/1.1/DTD/svg11.dtd">
<svg xmlns="http://www.w3.org/2000/svg" version="1.1" width="4096px" height="4096px" style="shape-rendering:geometricPrecision; text-rendering:geometricPrecision; image-rendering:optimizeQuality; fill-rule:evenodd; clip-rule:evenodd" xmlns:xlink="http://www.w3.org/1999/xlink">
<g><path style="opacity:1" fill="#ca3836" d="M 247.5,1347.5 C 1447.5,1347.5 2647.5,1347.5 3847.5,1347.5C 3847.5,1747.5 3847.5,2147.5 3847.5,2547.5C 3247.5,2547.5 2647.5,2547.5 2047.5,2547.5C 2047.5,2614.17 2047.5,2680.83 2047.5,2747.5C 1780.83,2747.5 1514.17,2747.5 1247.5,2747.5C 1247.5,2680.83 1247.5,2614.17 1247.5,2547.5C 914.167,2547.5 580.833,2547.5 247.5,2547.5C 247.5,2147.5 247.5,1747.5 247.5,1347.5 Z"/></g>
<g><path style="opacity:1" fill="#fefffe" d="M 447.5,1547.5 C 714.167,1547.5 980.833,1547.5 1247.5,1547.5C 1247.5,1814.17 1247.5,2080.83 1247.5,2347.5C 1180.83,2347.5 1114.17,2347.5 1047.5,2347.5C 1047.5,2147.5 1047.5,1947.5 1047.5,1747.5C 980.833,1747.5 914.167,1747.5 847.5,1747.5C 847.5,1947.5 847.5,2147.5 847.5,2347.5C 714.167,2347.5 580.833,2347.5 447.5,2347.5C 447.5,2080.83 447.5,1814.17 447.5,1547.5 Z"/></g>
<g><path style="opacity:1" fill="#fefffe" d="M 1447.5,1547.5 C 1714.17,1547.5 1980.83,1547.5 2247.5,1547.5C 2247.5,1814.17 2247.5,2080.83 2247.5,2347.5C 2114.17,2347.5 1980.83,2347.5 1847.5,2347.5C 1847.5,2414.17 1847.5,2480.83 1847.5,2547.5C 1714.17,2547.5 1580.83,2547.5 1447.5,2547.5C 1447.5,2214.17 1447.5,1880.83 1447.5,1547.5 Z"/></g>
<g><path style="opacity:1" fill="#fefffe" d="M 2447.5,1547.5 C 2847.5,1547.5 3247.5,1547.5 3647.5,1547.5C 3647.5,1814.17 3647.5,2080.83 3647.5,2347.5C 3580.83,2347.5 3514.17,2347.5 3447.5,2347.5C 3447.5,2147.5 3447.5,1947.5 3447.5,1747.5C 3380.83,1747.5 3314.17,1747.5 3247.5,1747.5C 3247.5,1947.5 3247.5,2147.5 3247.5,2347.5C 3180.83,2347.5 3114.17,2347.5 3047.5,2347.5C 3047.5,2147.5 3047.5,1947.5 3047.5,1747.5C 2980.83,1747.5 2914.17,1747.5 2847.5,1747.5C 2847.5,1947.5 2847.5,2147.5 2847.5,2347.5C 2714.17,2347.5 2580.83,2347.5 2447.5,2347.5C 2447.5,2080.83 2447.5,1814.17 2447.5,1547.5 Z"/></g>
<g><path style="opacity:1" fill="#ca3836" d="M 1847.5,1747.5 C 1914.17,1747.5 1980.83,1747.5 2047.5,1747.5C 2047.5,1880.83 2047.5,2014.17 2047.5,2147.5C 1980.83,2147.5 1914.17,2147.5 1847.5,2147.5C 1847.5,2014.17 1847.5,1880.83 1847.5,1747.5 Z"/></g>
</svg>
