<?xml version="1.0" encoding="UTF-8"?>
<!DOCTYPE svg PUBLIC "-//W3C//DTD SVG 1.1//EN" "http://www.w3.org/Graphics/SVG/1.1/DTD/svg11.dtd">
<svg xmlns="http://www.w3.org/2000/svg" version="1.1" width="4096px" height="3994px" style="shape-rendering:geometricPrecision; text-rendering:geometricPrecision; image-rendering:optimizeQuality; fill-rule:evenodd; clip-rule:evenodd" xmlns:xlink="http://www.w3.org/1999/xlink">
<g><path style="opacity:1" fill="#001e36" d="M 686.5,-0.5 C 1593.83,-0.5 2501.17,-0.5 3408.5,-0.5C 3582.37,10.6388 3733.7,74.1388 3862.5,190C 4004.6,324.723 4082.27,490.223 4095.5,686.5C 4095.5,1559.83 4095.5,2433.17 4095.5,3306.5C 4084.27,3480.88 4020.44,3632.55 3904,3761.5C 3769.43,3903.02 3604.26,3980.36 3408.5,3993.5C 2501.17,3993.5 1593.83,3993.5 686.5,3993.5C 485.171,3979.58 316.671,3898.58 181,3750.5C 70.664,3623.41 10.164,3475.41 -0.5,3306.5C -0.5,2433.17 -0.5,1559.83 -0.5,686.5C 13.4226,485.171 94.4226,316.671 242.5,181C 369.585,70.664 517.585,10.164 686.5,-0.5 Z"/></g>
<g><path style="opacity:1" fill="#30a7fe" d="M 1382.5,1016.5 C 1460.31,1014.66 1537.98,1017.16 1615.5,1024C 1690.6,1031.62 1763.6,1048.29 1834.5,1074C 1945.03,1114.82 2035.87,1181.98 2107,1275.5C 2162.24,1353.86 2195.91,1440.86 2208,1536.5C 2216.91,1614.16 2214.58,1691.5 2201,1768.5C 2176.64,1904.1 2111.14,2014.93 2004.5,2101C 1950.46,2144.03 1890.46,2176.7 1824.5,2199C 1738.44,2227.34 1650.11,2244.01 1559.5,2249C 1543.83,2249.64 1528.17,2250.31 1512.5,2251C 1439.15,2251.75 1365.82,2251.25 1292.5,2249.5C 1293,2436.56 1292.5,2623.56 1291,2810.5C 1287.63,2816.2 1282.8,2820.04 1276.5,2822C 1162.83,2822.67 1049.17,2822.67 935.5,2822C 928.667,2820.5 924.5,2816.33 923,2809.5C 921.335,2219.2 921.002,1628.87 922,1038.5C 923.091,1031.15 927.257,1026.65 934.5,1025C 1084,1022.33 1233.33,1019.49 1382.5,1016.5 Z"/></g>
<g><path style="opacity:1" fill="#001e36" d="M 1400.5,1349.5 C 1443.5,1349.33 1486.5,1349.5 1529.5,1350C 1582.57,1354.15 1633.9,1365.81 1683.5,1385C 1775.97,1426.7 1827.81,1498.2 1839,1599.5C 1842.18,1644.93 1837.85,1689.6 1826,1733.5C 1817.69,1760.79 1804.69,1785.46 1787,1807.5C 1744.87,1855.5 1692.7,1887.67 1630.5,1904C 1554.81,1925.39 1477.64,1934.22 1399,1930.5C 1363.45,1930.97 1327.95,1929.97 1292.5,1927.5C 1292.5,1736.5 1292.5,1545.5 1292.5,1354.5C 1328.59,1351.5 1364.59,1349.84 1400.5,1349.5 Z"/></g>
<g><path style="opacity:1" fill="#30a7fe" d="M 2894.5,1438.5 C 2984.41,1436.54 3073.74,1442.71 3162.5,1457C 3208.46,1464.88 3252.8,1478.21 3295.5,1497C 3302.26,1501.68 3306.1,1508.18 3307,1516.5C 3307.67,1615.17 3307.67,1713.83 3307,1812.5C 3304.06,1822.32 3297.4,1826.98 3287,1826.5C 3284.1,1826.36 3281.27,1825.86 3278.5,1825C 3215.3,1792.6 3148.63,1770.6 3078.5,1759C 3016.03,1747.32 2953.03,1742.32 2889.5,1744C 2859.71,1745.91 2830.71,1751.57 2802.5,1761C 2759.47,1781.76 2743.97,1815.26 2756,1861.5C 2762.45,1875.63 2771.61,1887.79 2783.5,1898C 2792.48,1905.49 2801.81,1912.49 2811.5,1919C 2854.19,1942.68 2898.19,1963.68 2943.5,1982C 3043.71,2015.44 3137.71,2061.11 3225.5,2119C 3345.62,2206.87 3397.46,2325.37 3381,2474.5C 3368.4,2582.56 3320.23,2670.73 3236.5,2739C 3194.9,2772.64 3148.57,2798.31 3097.5,2816C 3015.28,2844.37 2930.62,2858.7 2843.5,2859C 2717.87,2863.62 2595.2,2846.96 2475.5,2809C 2451.07,2800.75 2427.4,2790.75 2404.5,2779C 2397.03,2772.9 2392.53,2765.07 2391,2755.5C 2390.33,2652.83 2390.33,2550.17 2391,2447.5C 2393.83,2438.17 2399.99,2434.67 2409.5,2437C 2485.73,2482.19 2567.4,2513.19 2654.5,2530C 2730.7,2546.79 2807.7,2552.12 2885.5,2546C 2917.79,2543.35 2948.12,2534.35 2976.5,2519C 3008.65,2494.9 3018.48,2463.73 3006,2425.5C 2993.93,2403.43 2977.1,2385.93 2955.5,2373C 2933.71,2359.77 2911.04,2348.1 2887.5,2338C 2835.99,2317.27 2784.32,2296.94 2732.5,2277C 2669.7,2249.28 2610.37,2215.95 2554.5,2177C 2433.89,2088.23 2380.06,1968.73 2393,1818.5C 2408.38,1699.86 2464.54,1606.03 2561.5,1537C 2634.33,1488.49 2714.33,1458.49 2801.5,1447C 2815.86,1445.58 2830.2,1443.91 2844.5,1442C 2861.33,1440.96 2878,1439.8 2894.5,1438.5 Z"/></g>
</svg>
