<?xml version="1.0" encoding="UTF-8"?>
<!DOCTYPE svg PUBLIC "-//W3C//DTD SVG 1.1//EN" "http://www.w3.org/Graphics/SVG/1.1/DTD/svg11.dtd">
<svg xmlns="http://www.w3.org/2000/svg" version="1.1" width="1024px" height="1024px" style="shape-rendering:geometricPrecision; text-rendering:geometricPrecision; image-rendering:optimizeQuality; fill-rule:evenodd; clip-rule:evenodd" xmlns:xlink="http://www.w3.org/1999/xlink">
<g><path style="opacity:0.98" fill="#00dbfc" d="M 327.5,110.5 C 356.52,112.339 383.853,120.172 409.5,134C 446.446,154.221 480.279,178.721 511,207.5C 539.069,181.386 569.569,158.553 602.5,139C 621.829,128.168 642.162,119.834 663.5,114C 720.716,101.016 758.549,122.182 777,177.5C 785.191,207.976 788.191,238.976 786,270.5C 784.026,300.818 779.859,330.818 773.5,360.5C 825.818,374.994 873.485,398.494 916.5,431C 936.443,446.723 950.609,466.556 959,490.5C 965.023,513.613 961.69,535.28 949,555.5C 939.666,570.173 928.166,583.006 914.5,594C 872.317,625.59 825.651,648.423 774.5,662.5C 780.671,690.866 784.838,719.532 787,748.5C 789.396,779.223 787.063,809.556 780,839.5C 765.341,894.733 729.841,918.233 673.5,910C 649.14,904.988 626.14,896.322 604.5,884C 571.435,864.441 540.768,841.608 512.5,815.5C 482.167,843.337 449.167,867.504 413.5,888C 387.389,902.761 359.389,910.927 329.5,912.5C 297.414,912.71 273.247,899.043 257,871.5C 244.382,846.361 237.715,819.694 237,791.5C 235.771,764.707 237.104,738.04 241,711.5C 243.62,695.114 246.453,678.78 249.5,662.5C 204.812,650.153 163.146,631.319 124.5,606C 107.5,594.567 92.6671,580.734 80,564.5C 56.0723,530.635 55.4057,496.301 78,461.5C 96.8221,438.011 119.322,418.844 145.5,404C 178.52,385.491 213.187,370.824 249.5,360C 237.821,313.859 233.654,267.026 237,219.5C 238.854,195.081 245.52,172.081 257,150.5C 273.165,124.332 296.665,110.998 327.5,110.5 Z M 328.5,152.5 C 353.512,155.226 376.845,163.06 398.5,176C 428.102,193.594 455.435,214.26 480.5,238C 453.589,266.86 428.589,297.194 405.5,329C 366.438,333.233 327.771,339.733 289.5,348.5C 280.729,310.997 276.895,272.997 278,234.5C 278.737,217.746 281.737,201.412 287,185.5C 291.187,172.658 299.02,162.825 310.5,156C 316.529,154.269 322.529,153.102 328.5,152.5 Z M 683.5,152.5 C 707.123,148.888 723.623,157.888 733,179.5C 739.346,195.562 743.013,212.228 744,229.5C 745.833,269.336 742.167,308.669 733,347.5C 732.439,348.022 731.772,348.355 731,348.5C 693.609,339.463 655.775,332.963 617.5,329C 594.049,297.205 568.716,266.872 541.5,238C 572.342,207.5 607.342,182.834 646.5,164C 658.542,158.817 670.875,154.983 683.5,152.5 Z M 510.5,267.5 C 527.759,285.345 544.092,304.012 559.5,323.5C 527.177,323.357 494.843,323.524 462.5,324C 477.96,304.707 493.96,285.873 510.5,267.5 Z M 488.5,365.5 C 522.88,365.284 557.214,366.451 591.5,369C 592.624,369.249 593.624,369.749 594.5,370.5C 625.127,414.375 651.96,460.709 675,509.5C 675.667,510.833 675.667,512.167 675,513.5C 651.958,562.615 625.124,609.281 594.5,653.5C 566.932,656.653 539.265,657.986 511.5,657.5C 484.097,657.863 456.763,656.696 429.5,654C 397.852,609.397 370.518,562.064 347.5,512C 370.644,462.524 397.477,415.357 428,370.5C 429.734,369.751 431.567,369.251 433.5,369C 451.978,367.616 470.312,366.449 488.5,365.5 Z M 370.5,375.5 C 371.552,375.351 372.552,375.517 373.5,376C 356.196,403.433 340.029,431.599 325,460.5C 315.939,437.483 307.772,414.15 300.5,390.5C 305.647,388.435 310.98,386.935 316.5,386C 334.595,382.28 352.595,378.78 370.5,375.5 Z M 649.5,375.5 C 672.974,379.161 696.308,383.661 719.5,389C 720.428,389.388 721.095,390.055 721.5,391C 714.858,414.259 707.025,437.093 698,459.5C 682.568,430.955 666.401,402.955 649.5,375.5 Z M 762.5,400.5 C 801.101,412.136 837.435,428.636 871.5,450C 885.243,459.741 897.743,470.907 909,483.5C 915.317,491.802 919.15,501.135 920.5,511.5C 919.15,521.865 915.317,531.198 909,539.5C 892.429,558.744 872.929,574.244 850.5,586C 822.513,601.271 793.179,613.104 762.5,621.5C 751.647,583.776 738.314,546.942 722.5,511C 738.312,475.064 751.645,438.231 762.5,400.5 Z M 256.5,401.5 C 257.822,401.33 258.989,401.663 260,402.5C 271.133,439.903 284.633,476.403 300.5,512C 284.622,547.93 271.122,584.763 260,622.5C 219.055,610.442 180.888,592.609 145.5,569C 128.089,557.259 114.589,542.093 105,523.5C 101.668,515.505 101.668,507.505 105,499.5C 111.198,486.628 119.698,475.462 130.5,466C 151.157,448.992 173.823,434.992 198.5,424C 217.588,415.613 236.921,408.113 256.5,401.5 Z M 697.5,562.5 C 706.988,585.29 715.322,608.624 722.5,632.5C 699.171,638.9 675.505,643.9 651.5,647.5C 650.833,647.167 650.167,646.833 649.5,646.5C 667.029,619.45 683.029,591.45 697.5,562.5 Z M 324.5,563.5 C 339.774,591.944 356.107,619.777 373.5,647C 349.395,644.046 325.562,639.546 302,633.5C 302.348,628.765 303.348,624.099 305,619.5C 311.014,600.622 317.514,581.955 324.5,563.5 Z M 290.5,674.5 C 328.798,683.383 367.465,690.216 406.5,695C 429.449,726.293 454.283,756.127 481,784.5C 452.255,814.174 419.088,838.341 381.5,857C 364.806,864.9 347.306,869.733 329,871.5C 315.219,871.11 304.219,865.443 296,854.5C 285.517,835.575 279.85,815.242 279,793.5C 277.082,753.264 280.915,713.597 290.5,674.5 Z M 729.5,674.5 C 730.833,674.5 732.167,674.5 733.5,674.5C 742.271,712.002 746.104,750.002 745,788.5C 744.263,805.259 741.263,821.593 736,837.5C 731.837,850.36 724.004,860.194 712.5,867C 697.812,871.19 683.146,870.856 668.5,866C 653.135,861.318 638.468,854.985 624.5,847C 594.898,829.406 567.565,808.74 542.5,785C 569.411,756.14 594.411,725.806 617.5,694C 655.437,690.178 692.77,683.678 729.5,674.5 Z M 462.5,699.5 C 495.002,699.641 527.669,699.475 560.5,699C 545.082,718.423 528.915,737.256 512,755.5C 494.519,737.53 478.019,718.864 462.5,699.5 Z"/></g>
<g><path style="opacity:0.989" fill="#00dbfc" d="M 499.5,427.5 C 535.139,424.301 562.972,437.301 583,466.5C 597.689,492.651 599.356,519.651 588,547.5C 566.127,586.847 532.96,602.013 488.5,593C 449.868,579.594 429.201,552.427 426.5,511.5C 430.259,465.419 454.593,437.419 499.5,427.5 Z"/></g>
</svg>
