<?xml version="1.0" encoding="UTF-8"?>
<!DOCTYPE svg PUBLIC "-//W3C//DTD SVG 1.1//EN" "http://www.w3.org/Graphics/SVG/1.1/DTD/svg11.dtd">
<svg xmlns="http://www.w3.org/2000/svg" version="1.1" width="1201px" height="1201px" style="shape-rendering:geometricPrecision; text-rendering:geometricPrecision; image-rendering:optimizeQuality; fill-rule:evenodd; clip-rule:evenodd" xmlns:xlink="http://www.w3.org/1999/xlink">
<g><path style="opacity:1" fill="#1e88e5" d="M 1200.5,117.5 C 1200.5,439.5 1200.5,761.5 1200.5,1083.5C 1187.83,1148.83 1148.83,1187.83 1083.5,1200.5C 761.5,1200.5 439.5,1200.5 117.5,1200.5C 68.1394,1192.31 32.6394,1165.64 11,1120.5C 5.95015,1108.63 2.61682,1096.3 1,1083.5C 0.333333,761.5 0.333333,439.5 1,117.5C 9.96548,63.2098 40.1321,26.3765 91.5,7C 99.9464,4.0551 108.613,2.0551 117.5,1C 439.5,0.333333 761.5,0.333333 1083.5,1C 1135.16,9.3999 1171.33,37.5666 1192,85.5C 1195.8,96.0482 1198.64,106.715 1200.5,117.5 Z"/></g>
<g><path style="opacity:1" fill="#fefefe" d="M 198.5,133.5 C 288.501,133.333 378.501,133.5 468.5,134C 503.832,140.667 525.332,161.5 533,196.5C 533.667,442.833 533.667,689.167 533,935.5C 528.273,965.898 511.44,986.398 482.5,997C 477.968,998.622 473.301,999.622 468.5,1000C 377.833,1000.67 287.167,1000.67 196.5,1000C 161.452,992.285 140.619,970.785 134,935.5C 133.333,689.833 133.333,444.167 134,198.5C 141.68,162.987 163.18,141.32 198.5,133.5 Z"/></g>
<g><path style="opacity:1" fill="#fefefe" d="M 732.5,133.5 C 822.167,133.333 911.834,133.5 1001.5,134C 1030.97,138.817 1051.47,154.984 1063,182.5C 1064.75,187.735 1066.08,193.068 1067,198.5C 1067.67,321.833 1067.67,445.167 1067,568.5C 1060.23,604.266 1039.07,625.766 1003.5,633C 911.833,633.667 820.167,633.667 728.5,633C 693.878,625.046 673.712,603.546 668,568.5C 667.333,444.5 667.333,320.5 668,196.5C 675.871,161.462 697.371,140.462 732.5,133.5 Z"/></g>
</svg>
