<?xml version="1.0" encoding="UTF-8"?>
<!DOCTYPE svg PUBLIC "-//W3C//DTD SVG 1.1//EN" "http://www.w3.org/Graphics/SVG/1.1/DTD/svg11.dtd">
<svg xmlns="http://www.w3.org/2000/svg" version="1.1" width="4096px" height="4096px" style="shape-rendering:geometricPrecision; text-rendering:geometricPrecision; image-rendering:optimizeQuality; fill-rule:evenodd; clip-rule:evenodd" xmlns:xlink="http://www.w3.org/1999/xlink">
<g><path style="opacity:0.982" fill="#ffe566" d="M 2900.5,266.5 C 2719.93,293.26 2539.27,319.594 2358.5,345.5C 2523.31,312.706 2688.31,280.206 2853.5,248C 2867.92,245.189 2880.92,248.189 2892.5,257C 2895.75,259.747 2898.42,262.914 2900.5,266.5 Z"/></g>
<g><path style="opacity:0.992" fill="#ffe460" d="M 2900.5,266.5 C 2904.48,271.472 2907.15,277.139 2908.5,283.5C 2611.17,326.5 2313.83,369.5 2016.5,412.5C 2130.23,389.42 2244.23,367.087 2358.5,345.5C 2539.27,319.594 2719.93,293.26 2900.5,266.5 Z"/></g>
<g><path style="opacity:0.994" fill="#ffe35a" d="M 2908.5,283.5 C 2909.4,288.772 2909.73,294.105 2909.5,299.5C 2501.19,359.02 2092.86,418.353 1684.5,477.5C 1794.95,455.344 1905.62,433.677 2016.5,412.5C 2313.83,369.5 2611.17,326.5 2908.5,283.5 Z"/></g>
<g><path style="opacity:0.998" fill="#ffe254" d="M 2909.5,299.5 C 2908.14,305.605 2906.47,311.605 2904.5,317.5C 2461.89,382.207 2019.22,446.54 1576.5,510.5C 1582.01,502.182 1589.68,496.682 1599.5,494C 1627.73,487.92 1656.07,482.42 1684.5,477.5C 2092.86,418.353 2501.19,359.02 2909.5,299.5 Z"/></g>
<g><path style="opacity:0.999" fill="#ffe14d" d="M 2904.5,317.5 C 2902.65,324.561 2900.65,331.561 2898.5,338.5C 2455.09,402.734 2011.76,467.401 1568.5,532.5C 1567.89,532.376 1567.56,532.043 1567.5,531.5C 1568.07,523.369 1571.07,516.369 1576.5,510.5C 2019.22,446.54 2461.89,382.207 2904.5,317.5 Z"/></g>
<g><path style="opacity:1" fill="#ffe047" d="M 2898.5,338.5 C 2896.83,344.5 2895.17,350.5 2893.5,356.5C 2450.86,421.02 2008.19,485.353 1565.5,549.5C 1566.04,543.35 1566.7,537.35 1567.5,531.5C 1567.56,532.043 1567.89,532.376 1568.5,532.5C 2011.76,467.401 2455.09,402.734 2898.5,338.5 Z"/></g>
<g><path style="opacity:1" fill="#ffdf41" d="M 2893.5,356.5 C 2891.68,362.105 2890.01,367.772 2888.5,373.5C 2447.17,437.833 2005.84,502.166 1564.5,566.5C 1565.35,560.879 1565.69,555.212 1565.5,549.5C 2008.19,485.353 2450.86,421.02 2893.5,356.5 Z"/></g>
<g><path style="opacity:0.999" fill="#ffde3b" d="M 2888.5,373.5 C 2886.83,379.5 2885.17,385.5 2883.5,391.5C 2443.58,455.965 2003.58,519.965 1563.5,583.5C 1564.35,577.879 1564.69,572.212 1564.5,566.5C 2005.84,502.166 2447.17,437.833 2888.5,373.5 Z"/></g>
<g><path style="opacity:1" fill="#ffdb34" d="M 2883.5,391.5 C 2870.68,435.105 2858.01,478.772 2845.5,522.5C 2415.85,584.927 1986.18,647.26 1556.5,709.5C 1558.99,667.509 1561.32,625.509 1563.5,583.5C 2003.58,519.965 2443.58,455.965 2883.5,391.5 Z"/></g>
<g><path style="opacity:1" fill="#feda31" d="M 2845.5,522.5 C 2841.03,538.575 2836.36,554.575 2831.5,570.5C 2405.46,632.22 1979.46,694.22 1553.5,756.5C 1554.46,740.83 1555.46,725.163 1556.5,709.5C 1986.18,647.26 2415.85,584.927 2845.5,522.5 Z"/></g>
<g><path style="opacity:1" fill="#fed72f" d="M 2831.5,570.5 C 2808.61,651.068 2785.28,731.401 2761.5,811.5C 2354.51,870.594 1947.51,929.594 1540.5,988.5C 1540.79,990.735 1540.46,992.735 1539.5,994.5C 1542.01,950.816 1544.68,907.149 1547.5,863.5C 1547.5,861.167 1547.5,858.833 1547.5,856.5C 1549.7,823.181 1551.7,789.848 1553.5,756.5C 1979.46,694.22 2405.46,632.22 2831.5,570.5 Z"/></g>
<g><path style="opacity:0.993" fill="#47c8ff" d="M 422.5,655.5 C 367.988,695.59 313.655,735.923 259.5,776.5C 249.2,756.238 246.7,734.905 252,712.5C 265.521,668.647 295.187,645.313 341,642.5C 368.28,646.123 395.447,650.456 422.5,655.5 Z"/></g>
<g><path style="opacity:0.999" fill="#8b72fd" d="M 3744.5,643.5 C 3534.5,798.5 3324.5,953.5 3114.5,1108.5C 3104.2,1103.95 3093.54,1102.78 3082.5,1105C 3024.79,1116.11 2967.12,1127.28 2909.5,1138.5C 3114.99,986.589 3320.66,834.923 3526.5,683.5C 3598.97,669.754 3671.63,656.42 3744.5,643.5 Z"/></g>
<g><path style="opacity:1" fill="#8e6efd" d="M 3744.5,643.5 C 3775.22,641.046 3800.89,651.046 3821.5,673.5C 3591.2,843.652 3360.53,1013.32 3129.5,1182.5C 3133.75,1174.59 3136.91,1166.26 3139,1157.5C 3140.9,1135.97 3132.74,1119.64 3114.5,1108.5C 3324.5,953.5 3534.5,798.5 3744.5,643.5 Z"/></g>
<g><path style="opacity:0.997" fill="#49c6ff" d="M 422.5,655.5 C 447.322,659.968 471.989,664.634 496.5,669.5C 426.894,721.643 356.894,773.31 286.5,824.5C 276.997,808.832 267.997,792.832 259.5,776.5C 313.655,735.923 367.988,695.59 422.5,655.5 Z"/></g>
<g><path style="opacity:0.998" fill="#4cc3ff" d="M 496.5,669.5 C 534.581,675.736 572.581,682.402 610.5,689.5C 516.805,759.188 422.805,828.521 328.5,897.5C 314.262,873.365 300.262,849.032 286.5,824.5C 356.894,773.31 426.894,721.643 496.5,669.5 Z"/></g>
<g><path style="opacity:1" fill="#906bfd" d="M 3821.5,673.5 C 3839.01,693.015 3847.01,716.015 3845.5,742.5C 3583.76,935.577 3321.76,1128.24 3059.5,1320.5C 3082.34,1274.15 3105.67,1228.15 3129.5,1182.5C 3360.53,1013.32 3591.2,843.652 3821.5,673.5 Z"/></g>
<g><path style="opacity:0.999" fill="#8875fd" d="M 3526.5,683.5 C 3320.66,834.923 3114.99,986.589 2909.5,1138.5C 2877.96,1145.23 2846.3,1151.23 2814.5,1156.5C 3020.78,1004.89 3226.78,852.886 3432.5,700.5C 3463.71,694.325 3495.04,688.659 3526.5,683.5 Z"/></g>
<g><path style="opacity:0.998" fill="#4fbeff" d="M 610.5,689.5 C 667.167,699.5 723.833,709.5 780.5,719.5C 650.805,815.854 520.805,911.854 390.5,1007.5C 369.405,971.072 348.738,934.406 328.5,897.5C 422.805,828.521 516.805,759.188 610.5,689.5 Z"/></g>
<g><path style="opacity:0.999" fill="#8679fd" d="M 3432.5,700.5 C 3226.78,852.886 3020.78,1004.89 2814.5,1156.5C 2784.89,1162.39 2755.22,1168.22 2725.5,1174C 2702.12,1176.31 2685.12,1167.15 2674.5,1146.5C 2672.52,1137.29 2672.02,1127.95 2673,1118.5C 2674.9,1112.48 2676.73,1106.48 2678.5,1100.5C 2678.5,1099.83 2678.83,1099.5 2679.5,1099.5C 2837.71,984.23 2995.38,868.23 3152.5,751.5C 3245.72,734.073 3339.06,717.073 3432.5,700.5 Z"/></g>
<g><path style="opacity:0.999" fill="#54b8ff" d="M 780.5,719.5 C 843.474,730.94 906.474,742.273 969.5,753.5C 799.864,878.986 629.864,1003.99 459.5,1128.5C 436.753,1088 413.753,1047.67 390.5,1007.5C 520.805,911.854 650.805,815.854 780.5,719.5 Z"/></g>
<g><path style="opacity:0.999" fill="#9368fd" d="M 3845.5,742.5 C 3843.98,758.235 3839.14,772.902 3831,786.5C 3802.97,836.667 3774.8,886.667 3746.5,936.5C 3485.83,1128.17 3225.17,1319.83 2964.5,1511.5C 2987.56,1464.37 3010.9,1417.37 3034.5,1370.5C 3042.83,1353.83 3051.17,1337.17 3059.5,1320.5C 3321.76,1128.24 3583.76,935.577 3845.5,742.5 Z"/></g>
<g><path style="opacity:0.999" fill="#847dfd" d="M 3152.5,751.5 C 2995.38,868.23 2837.71,984.23 2679.5,1099.5C 2680.5,1092.11 2682.5,1085.11 2685.5,1078.5C 2830.81,971.854 2975.81,864.854 3120.5,757.5C 3130.96,755.087 3141.63,753.087 3152.5,751.5 Z"/></g>
<g><path style="opacity:0.999" fill="#57b5ff" d="M 969.5,753.5 C 981.924,755.515 994.258,757.848 1006.5,760.5C 829.375,891.897 651.709,1022.56 473.5,1152.5C 468.848,1144.54 464.182,1136.54 459.5,1128.5C 629.864,1003.99 799.864,878.986 969.5,753.5 Z"/></g>
<g><path style="opacity:0.998" fill="#817ffd" d="M 3120.5,757.5 C 2975.81,864.854 2830.81,971.854 2685.5,1078.5C 2705.91,1005.01 2726.91,931.68 2748.5,858.5C 2751.65,846.243 2755.31,834.243 2759.5,822.5C 2879.81,800.704 3000.14,779.038 3120.5,757.5 Z"/></g>
<g><path style="opacity:0.999" fill="#5ab1ff" d="M 1006.5,760.5 C 1070.07,771.217 1133.4,782.55 1196.5,794.5C 978.685,954.247 761.018,1114.25 543.5,1274.5C 519.676,1234.19 496.343,1193.53 473.5,1152.5C 651.709,1022.56 829.375,891.897 1006.5,760.5 Z"/></g>
<g><path style="opacity:0.999" fill="#5dadff" d="M 1196.5,794.5 C 1208.54,796.284 1220.54,798.284 1232.5,800.5C 1231.53,802.193 1230.19,803.693 1228.5,805C 1004.37,969.311 780.703,1134.14 557.5,1299.5C 552.077,1291.66 547.41,1283.33 543.5,1274.5C 761.018,1114.25 978.685,954.247 1196.5,794.5 Z"/></g>
<g><path style="opacity:0.999" fill="#5faaff" d="M 1232.5,800.5 C 1276.86,808.393 1321.19,816.393 1365.5,824.5C 1112.53,1011.32 859.197,1197.65 605.5,1383.5C 588.998,1355.83 572.998,1327.83 557.5,1299.5C 780.703,1134.14 1004.37,969.311 1228.5,805C 1230.19,803.693 1231.53,802.193 1232.5,800.5 Z"/></g>
<g><path style="opacity:1" fill="#fed32c" d="M 2761.5,811.5 C 2760.83,815.167 2760.17,818.833 2759.5,822.5C 2755.31,834.243 2751.65,846.243 2748.5,858.5C 2344.91,917.775 1941.24,976.775 1537.5,1035.5C 1537.93,1021.82 1538.6,1008.15 1539.5,994.5C 1540.46,992.735 1540.79,990.735 1540.5,988.5C 1947.51,929.594 2354.51,870.594 2761.5,811.5 Z"/></g>
<g><path style="opacity:0.999" fill="#62a7ff" d="M 1365.5,824.5 C 1397.03,829.754 1428.37,835.421 1459.5,841.5C 1186.72,1042.73 913.716,1243.73 640.5,1444.5C 628.078,1424.66 616.412,1404.33 605.5,1383.5C 859.197,1197.65 1112.53,1011.32 1365.5,824.5 Z"/></g>
<g><path style="opacity:0.999" fill="#64a3ff" d="M 1459.5,841.5 C 1488.83,846.5 1518.17,851.5 1547.5,856.5C 1547.5,858.833 1547.5,861.167 1547.5,863.5C 1256.65,1077.75 965.648,1291.75 674.5,1505.5C 662.901,1485.3 651.568,1464.97 640.5,1444.5C 913.716,1243.73 1186.72,1042.73 1459.5,841.5 Z"/></g>
<g><path style="opacity:1" fill="#fed029" d="M 2748.5,858.5 C 2726.91,931.68 2705.91,1005.01 2685.5,1078.5C 2682.5,1085.11 2680.5,1092.11 2679.5,1099.5C 2678.83,1099.5 2678.5,1099.83 2678.5,1100.5C 2293.41,1155.94 1908.41,1211.94 1523.5,1268.5C 1523.5,1266.17 1523.5,1263.83 1523.5,1261.5C 1524.24,1255.53 1524.57,1249.53 1524.5,1243.5C 1528.73,1177.19 1532.73,1110.86 1536.5,1044.5C 1536.37,1041.43 1536.7,1038.43 1537.5,1035.5C 1941.24,976.775 2344.91,917.775 2748.5,858.5 Z"/></g>
<g><path style="opacity:1" fill="#679ffe" d="M 1547.5,863.5 C 1544.68,907.149 1542.01,950.816 1539.5,994.5C 1538.6,1008.15 1537.93,1021.82 1537.5,1035.5C 1536.7,1038.43 1536.37,1041.43 1536.5,1044.5C 1272.46,1238.85 1008.46,1433.18 744.5,1627.5C 721.182,1586.87 697.849,1546.2 674.5,1505.5C 965.648,1291.75 1256.65,1077.75 1547.5,863.5 Z"/></g>
<g><path style="opacity:0.999" fill="#9665fe" d="M 3746.5,936.5 C 3725,976.164 3703,1015.5 3680.5,1054.5C 3423.24,1243.09 3166.24,1432.09 2909.5,1621.5C 2927.33,1584.52 2945.66,1547.85 2964.5,1511.5C 3225.17,1319.83 3485.83,1128.17 3746.5,936.5 Z"/></g>
<g><path style="opacity:1" fill="#6d99fe" d="M 1536.5,1044.5 C 1532.73,1110.86 1528.73,1177.19 1524.5,1243.5C 1289.83,1415.83 1055.17,1588.17 820.5,1760.5C 794.929,1716.36 769.596,1672.03 744.5,1627.5C 1008.46,1433.18 1272.46,1238.85 1536.5,1044.5 Z"/></g>
<g><path style="opacity:0.999" fill="#9960fd" d="M 3680.5,1054.5 C 3626.08,1152.34 3571.42,1250 3516.5,1347.5C 3268.5,1529.83 3020.5,1712.17 2772.5,1894.5C 2801.5,1835.83 2830.5,1777.17 2859.5,1718.5C 2868.34,1702.15 2876.67,1685.48 2884.5,1668.5C 2893.09,1652.99 2901.42,1637.33 2909.5,1621.5C 3166.24,1432.09 3423.24,1243.09 3680.5,1054.5 Z"/></g>
<g><path style="opacity:1" fill="#fecd26" d="M 2678.5,1100.5 C 2676.73,1106.48 2674.9,1112.48 2673,1118.5C 2672.02,1127.95 2672.52,1137.29 2674.5,1146.5C 2289.7,1202.28 1905.03,1258.61 1520.5,1315.5C 1521.38,1299.82 1522.38,1284.16 1523.5,1268.5C 1908.41,1211.94 2293.41,1155.94 2678.5,1100.5 Z"/></g>
<g><path style="opacity:1" fill="#feca22" d="M 3114.5,1108.5 C 3132.74,1119.64 3140.9,1135.97 3139,1157.5C 3136.91,1166.26 3133.75,1174.59 3129.5,1182.5C 3105.67,1228.15 3082.34,1274.15 3059.5,1320.5C 3051.17,1337.17 3042.83,1353.83 3034.5,1370.5C 2524.46,1444.22 2014.46,1518.22 1504.5,1592.5C 1506.13,1560.16 1507.79,1527.83 1509.5,1495.5C 1511.17,1471.5 1512.83,1447.5 1514.5,1423.5C 1516.25,1387.49 1518.25,1351.49 1520.5,1315.5C 1905.03,1258.61 2289.7,1202.28 2674.5,1146.5C 2685.12,1167.15 2702.12,1176.31 2725.5,1174C 2755.22,1168.22 2784.89,1162.39 2814.5,1156.5C 2846.3,1151.23 2877.96,1145.23 2909.5,1138.5C 2967.12,1127.28 3024.79,1116.11 3082.5,1105C 3093.54,1102.78 3104.2,1103.95 3114.5,1108.5 Z"/></g>
<g><path style="opacity:1" fill="#7095ff" d="M 1524.5,1243.5 C 1524.57,1249.53 1524.24,1255.53 1523.5,1261.5C 1291.5,1431.83 1059.5,1602.17 827.5,1772.5C 824.665,1768.84 822.332,1764.84 820.5,1760.5C 1055.17,1588.17 1289.83,1415.83 1524.5,1243.5 Z"/></g>
<g><path style="opacity:1" fill="#7292fe" d="M 1523.5,1261.5 C 1523.5,1263.83 1523.5,1266.17 1523.5,1268.5C 1522.38,1284.16 1521.38,1299.82 1520.5,1315.5C 1518.25,1351.49 1516.25,1387.49 1514.5,1423.5C 1306.31,1576.75 1097.98,1729.75 889.5,1882.5C 868.405,1846.07 847.738,1809.41 827.5,1772.5C 1059.5,1602.17 1291.5,1431.83 1523.5,1261.5 Z"/></g>
<g><path style="opacity:0.999" fill="#9c5dfe" d="M 3516.5,1347.5 C 3511.34,1357.83 3505.67,1367.83 3499.5,1377.5C 3252.22,1558.78 3005.22,1740.45 2758.5,1922.5C 2762.66,1912.85 2767.33,1903.52 2772.5,1894.5C 3020.5,1712.17 3268.5,1529.83 3516.5,1347.5 Z"/></g>
<g><path style="opacity:1" fill="#fec41c" d="M 3034.5,1370.5 C 3010.9,1417.37 2987.56,1464.37 2964.5,1511.5C 2945.66,1547.85 2927.33,1584.52 2909.5,1621.5C 2901.42,1637.33 2893.09,1652.99 2884.5,1668.5C 2566.15,1714.74 2247.82,1761.07 1929.5,1807.5C 1916.53,1800.34 1902.86,1798.84 1888.5,1803C 1808.74,1821.35 1729.07,1839.68 1649.5,1858C 1648.58,1858.28 1647.92,1858.78 1647.5,1859.5C 1636.08,1861.4 1624.75,1863.74 1613.5,1866.5C 1587.85,1872.88 1562.01,1878.55 1536,1883.5C 1510.29,1881.45 1494.95,1867.79 1490,1842.5C 1490.92,1817.17 1492.08,1791.84 1493.5,1766.5C 1495.04,1748.88 1496.04,1731.21 1496.5,1713.5C 1499.1,1677.33 1501.43,1641 1503.5,1604.5C 1503.31,1600.43 1503.64,1596.43 1504.5,1592.5C 2014.46,1518.22 2524.46,1444.22 3034.5,1370.5 Z"/></g>
<g><path style="opacity:0.999" fill="#9e5afd" d="M 3499.5,1377.5 C 3451.02,1465.8 3402.02,1553.8 3352.5,1641.5C 3113.17,1817.17 2873.83,1992.83 2634.5,2168.5C 2660.36,2118.12 2685.69,2067.45 2710.5,2016.5C 2719.07,2000.36 2727.41,1984.02 2735.5,1967.5C 2742.93,1952.31 2750.59,1937.31 2758.5,1922.5C 3005.22,1740.45 3252.22,1558.78 3499.5,1377.5 Z"/></g>
<g><path style="opacity:0.999" fill="#758efe" d="M 1514.5,1423.5 C 1512.83,1447.5 1511.17,1471.5 1509.5,1495.5C 1312.17,1640.83 1114.83,1786.17 917.5,1931.5C 908.167,1915.17 898.833,1898.83 889.5,1882.5C 1097.98,1729.75 1306.31,1576.75 1514.5,1423.5 Z"/></g>
<g><path style="opacity:1" fill="#778bfe" d="M 1509.5,1495.5 C 1507.79,1527.83 1506.13,1560.16 1504.5,1592.5C 1503.64,1596.43 1503.31,1600.43 1503.5,1604.5C 1321.88,1737.45 1140.55,1870.79 959.5,2004.5C 945.262,1980.37 931.262,1956.03 917.5,1931.5C 1114.83,1786.17 1312.17,1640.83 1509.5,1495.5 Z"/></g>
<g><path style="opacity:0.999" fill="#7a87fe" d="M 1503.5,1604.5 C 1501.43,1641 1499.1,1677.33 1496.5,1713.5C 1496.57,1713.06 1496.4,1712.73 1496,1712.5C 1330.98,1834.03 1166.15,1955.7 1001.5,2077.5C 986.745,2053.66 972.745,2029.33 959.5,2004.5C 1140.55,1870.79 1321.88,1737.45 1503.5,1604.5 Z"/></g>
<g><path style="opacity:0.999" fill="#a156fd" d="M 3352.5,1641.5 C 3336.4,1670.7 3320.07,1699.7 3303.5,1728.5C 3067.1,1902.91 2830.43,2076.91 2593.5,2250.5C 2607.17,2223.17 2620.83,2195.83 2634.5,2168.5C 2873.83,1992.83 3113.17,1817.17 3352.5,1641.5 Z"/></g>
<g><path style="opacity:1" fill="#fec019" d="M 2884.5,1668.5 C 2876.67,1685.48 2868.34,1702.15 2859.5,1718.5C 2557.09,1761.94 2254.76,1805.94 1952.5,1850.5C 1951.58,1850.46 1950.92,1850.12 1950.5,1849.5C 1950.5,1847.83 1950.5,1846.17 1950.5,1844.5C 1949.15,1829.12 1942.15,1817.12 1929.5,1808.5C 1929.5,1808.17 1929.5,1807.83 1929.5,1807.5C 2247.82,1761.07 2566.15,1714.74 2884.5,1668.5 Z"/></g>
<g><path style="opacity:1" fill="#7d84fe" d="M 1496.5,1713.5 C 1496.04,1731.21 1495.04,1748.88 1493.5,1766.5C 1336.17,1882.17 1178.83,1997.83 1021.5,2113.5C 1014.31,2101.8 1007.65,2089.8 1001.5,2077.5C 1166.15,1955.7 1330.98,1834.03 1496,1712.5C 1496.4,1712.73 1496.57,1713.06 1496.5,1713.5 Z"/></g>
<g><path style="opacity:1" fill="#febd16" d="M 2859.5,1718.5 C 2830.5,1777.17 2801.5,1835.83 2772.5,1894.5C 2767.33,1903.52 2762.66,1912.85 2758.5,1922.5C 2750.59,1937.31 2742.93,1952.31 2735.5,1967.5C 2458.05,2007.09 2180.72,2047.42 1903.5,2088.5C 1902.7,2088.04 1902.37,2087.38 1902.5,2086.5C 1908.78,2053.09 1915.45,2019.75 1922.5,1986.5C 1932.37,1940.82 1941.7,1895.16 1950.5,1849.5C 1950.92,1850.12 1951.58,1850.46 1952.5,1850.5C 2254.76,1805.94 2557.09,1761.94 2859.5,1718.5 Z"/></g>
<g><path style="opacity:0.999" fill="#a453fd" d="M 3303.5,1728.5 C 3265.59,1797.99 3226.92,1866.99 3187.5,1935.5C 2957.83,2104.17 2728.17,2272.83 2498.5,2441.5C 2519.17,2399.5 2539.83,2357.5 2560.5,2315.5C 2569.41,2298.69 2578.07,2281.69 2586.5,2264.5C 2588.83,2259.83 2591.17,2255.17 2593.5,2250.5C 2830.43,2076.91 3067.1,1902.91 3303.5,1728.5 Z"/></g>
<g><path style="opacity:0.999" fill="#8080fe" d="M 1493.5,1766.5 C 1492.08,1791.84 1490.92,1817.17 1490,1842.5C 1494.95,1867.79 1510.29,1881.45 1536,1883.5C 1562.01,1878.55 1587.85,1872.88 1613.5,1866.5C 1609.83,1870.2 1605.83,1873.7 1601.5,1877C 1433.41,2000.03 1265.74,2123.53 1098.5,2247.5C 1072.34,2203.19 1046.68,2158.53 1021.5,2113.5C 1178.83,1997.83 1336.17,1882.17 1493.5,1766.5 Z"/></g>
<g><path style="opacity:1" fill="#8679fd" d="M 1929.5,1807.5 C 1929.5,1807.83 1929.5,1808.17 1929.5,1808.5C 1675.5,1995.17 1421.5,2181.83 1167.5,2368.5C 1146.26,2332.37 1125.26,2296.03 1104.5,2259.5C 1286.07,2126.89 1467.07,1993.55 1647.5,1859.5C 1647.92,1858.78 1648.58,1858.28 1649.5,1858C 1729.07,1839.68 1808.74,1821.35 1888.5,1803C 1902.86,1798.84 1916.53,1800.34 1929.5,1807.5 Z"/></g>
<g><path style="opacity:1" fill="#8875fd" d="M 1929.5,1808.5 C 1942.15,1817.12 1949.15,1829.12 1950.5,1844.5C 1696.46,2031.51 1442.46,2218.51 1188.5,2405.5C 1180.74,2393.66 1173.74,2381.33 1167.5,2368.5C 1421.5,2181.83 1675.5,1995.17 1929.5,1808.5 Z"/></g>
<g><path style="opacity:1" fill="#8b72fd" d="M 1950.5,1844.5 C 1950.5,1846.17 1950.5,1847.83 1950.5,1849.5C 1941.7,1895.16 1932.37,1940.82 1922.5,1986.5C 1693.57,2154.09 1464.9,2322.09 1236.5,2490.5C 1220.23,2462.3 1204.23,2433.97 1188.5,2405.5C 1442.46,2218.51 1696.46,2031.51 1950.5,1844.5 Z"/></g>
<g><path style="opacity:1" fill="#847dfd" d="M 1647.5,1859.5 C 1467.07,1993.55 1286.07,2126.89 1104.5,2259.5C 1101.98,2255.78 1099.98,2251.78 1098.5,2247.5C 1265.74,2123.53 1433.41,2000.03 1601.5,1877C 1605.83,1873.7 1609.83,1870.2 1613.5,1866.5C 1624.75,1863.74 1636.08,1861.4 1647.5,1859.5 Z"/></g>
<g><path style="opacity:0.999" fill="#a74ffd" d="M 3187.5,1935.5 C 3161.02,1984.46 3134.02,2033.13 3106.5,2081.5C 2880.66,2246.92 2654.99,2412.59 2429.5,2578.5C 2452.25,2532.67 2475.25,2487 2498.5,2441.5C 2728.17,2272.83 2957.83,2104.17 3187.5,1935.5 Z"/></g>
<g><path style="opacity:1" fill="#feba13" d="M 2735.5,1967.5 C 2727.41,1984.02 2719.07,2000.36 2710.5,2016.5C 2437.83,2056.17 2165.17,2095.83 1892.5,2135.5C 1896.01,2119.62 1899.01,2103.62 1901.5,2087.5C 1901.5,2086.83 1901.83,2086.5 1902.5,2086.5C 1902.37,2087.38 1902.7,2088.04 1903.5,2088.5C 2180.72,2047.42 2458.05,2007.09 2735.5,1967.5 Z"/></g>
<g><path style="opacity:1" fill="#8e6ffd" d="M 1922.5,1986.5 C 1915.45,2019.75 1908.78,2053.09 1902.5,2086.5C 1901.83,2086.5 1901.5,2086.83 1901.5,2087.5C 1691.2,2241.81 1481.2,2396.48 1271.5,2551.5C 1259.6,2531.37 1247.93,2511.03 1236.5,2490.5C 1464.9,2322.09 1693.57,2154.09 1922.5,1986.5 Z"/></g>
<g><path style="opacity:1" fill="#feb710" d="M 2710.5,2016.5 C 2685.69,2067.45 2660.36,2118.12 2634.5,2168.5C 2620.83,2195.83 2607.17,2223.17 2593.5,2250.5C 2591.17,2255.17 2588.83,2259.83 2586.5,2264.5C 2339.47,2300.31 2092.47,2336.31 1845.5,2372.5C 1845.5,2370.83 1845.5,2369.17 1845.5,2367.5C 1847.37,2355.49 1849.37,2343.49 1851.5,2331.5C 1861.66,2284.37 1871.33,2237.03 1880.5,2189.5C 1884.5,2171.49 1888.5,2153.49 1892.5,2135.5C 2165.17,2095.83 2437.83,2056.17 2710.5,2016.5 Z"/></g>
<g><path style="opacity:0.999" fill="#aa4cfd" d="M 3106.5,2081.5 C 3073.99,2140.53 3040.99,2199.19 3007.5,2257.5C 2787.48,2419.19 2567.48,2580.86 2347.5,2742.5C 2368.83,2699.17 2390.17,2655.83 2411.5,2612.5C 2417.5,2601.17 2423.5,2589.83 2429.5,2578.5C 2654.99,2412.59 2880.66,2246.92 3106.5,2081.5 Z"/></g>
<g><path style="opacity:1" fill="#906cfd" d="M 1901.5,2087.5 C 1899.01,2103.62 1896.01,2119.62 1892.5,2135.5C 1888.5,2153.49 1884.5,2171.49 1880.5,2189.5C 1689.13,2330.51 1497.8,2471.51 1306.5,2612.5C 1294.44,2592.43 1282.77,2572.1 1271.5,2551.5C 1481.2,2396.48 1691.2,2241.81 1901.5,2087.5 Z"/></g>
<g><path style="opacity:0.999" fill="#9368fd" d="M 1880.5,2189.5 C 1871.33,2237.03 1861.66,2284.37 1851.5,2331.5C 1686.1,2453.58 1520.43,2575.24 1354.5,2696.5C 1338,2668.83 1322,2640.83 1306.5,2612.5C 1497.8,2471.51 1689.13,2330.51 1880.5,2189.5 Z"/></g>
<g><path style="opacity:0.999" fill="#ac48fd" d="M 3007.5,2257.5 C 2969.67,2326.5 2931.34,2395.16 2892.5,2463.5C 2678.57,2620.09 2464.9,2777.09 2251.5,2934.5C 2254.9,2926.71 2258.56,2919.04 2262.5,2911.5C 2290.59,2854.98 2318.93,2798.64 2347.5,2742.5C 2567.48,2580.86 2787.48,2419.19 3007.5,2257.5 Z"/></g>
<g><path style="opacity:1" fill="#feb40e" d="M 2586.5,2264.5 C 2578.07,2281.69 2569.41,2298.69 2560.5,2315.5C 2431.44,2333.79 2302.44,2352.46 2173.5,2371.5C 2170.88,2367.54 2167.88,2363.88 2164.5,2360.5C 2161.2,2356.84 2157.2,2354.18 2152.5,2352.5C 2141.31,2346.95 2129.64,2346.12 2117.5,2350C 2045.57,2372.25 1973.57,2394.25 1901.5,2416C 1889.08,2418.37 1877.41,2416.37 1866.5,2410C 1862,2406.33 1857.67,2402.5 1853.5,2398.5C 1848.11,2390 1845.11,2380.66 1844.5,2370.5C 1844.52,2369.27 1844.85,2368.27 1845.5,2367.5C 1845.5,2369.17 1845.5,2370.83 1845.5,2372.5C 2092.47,2336.31 2339.47,2300.31 2586.5,2264.5 Z"/></g>
<g><path style="opacity:1" fill="#feb10a" d="M 2560.5,2315.5 C 2539.83,2357.5 2519.17,2399.5 2498.5,2441.5C 2475.25,2487 2452.25,2532.67 2429.5,2578.5C 2423.5,2589.83 2417.5,2601.17 2411.5,2612.5C 2316.14,2626.41 2220.81,2640.41 2125.5,2654.5C 2130.17,2631.5 2134.83,2608.5 2139.5,2585.5C 2143.88,2565.58 2147.88,2545.58 2151.5,2525.5C 2160.63,2483.7 2169.46,2441.7 2178,2399.5C 2179.2,2389.7 2177.7,2380.36 2173.5,2371.5C 2302.44,2352.46 2431.44,2333.79 2560.5,2315.5 Z"/></g>
<g><path style="opacity:0.999" fill="#9665fd" d="M 1851.5,2331.5 C 1849.37,2343.49 1847.37,2355.49 1845.5,2367.5C 1844.85,2368.27 1844.52,2369.27 1844.5,2370.5C 1845.11,2380.66 1848.11,2390 1853.5,2398.5C 1696.8,2514.52 1539.8,2630.19 1382.5,2745.5C 1372.41,2729.66 1363.08,2713.33 1354.5,2696.5C 1520.43,2575.24 1686.1,2453.58 1851.5,2331.5 Z"/></g>
<g><path style="opacity:1" fill="#9a60fd" d="M 2152.5,2352.5 C 1918.57,2523.76 1684.9,2695.42 1451.5,2867.5C 1427.98,2827.13 1404.98,2786.46 1382.5,2745.5C 1539.8,2630.19 1696.8,2514.52 1853.5,2398.5C 1857.67,2402.5 1862,2406.33 1866.5,2410C 1877.41,2416.37 1889.08,2418.37 1901.5,2416C 1973.57,2394.25 2045.57,2372.25 2117.5,2350C 2129.64,2346.12 2141.31,2346.95 2152.5,2352.5 Z"/></g>
<g><path style="opacity:1" fill="#9c5dfd" d="M 2152.5,2352.5 C 2157.2,2354.18 2161.2,2356.84 2164.5,2360.5C 1929.17,2533.5 1693.83,2706.5 1458.5,2879.5C 1456.18,2875.54 1453.85,2871.54 1451.5,2867.5C 1684.9,2695.42 1918.57,2523.76 2152.5,2352.5 Z"/></g>
<g><path style="opacity:1" fill="#9e5afd" d="M 2164.5,2360.5 C 2167.88,2363.88 2170.88,2367.54 2173.5,2371.5C 2177.7,2380.36 2179.2,2389.7 2178,2399.5C 2169.46,2441.7 2160.63,2483.7 2151.5,2525.5C 1941.2,2679.81 1731.2,2834.48 1521.5,2989.5C 1500,2953.17 1479,2916.5 1458.5,2879.5C 1693.83,2706.5 1929.17,2533.5 2164.5,2360.5 Z"/></g>
<g><path style="opacity:0.999" fill="#af45fd" d="M 2892.5,2463.5 C 2876.67,2493.16 2860.34,2522.5 2843.5,2551.5C 2631.9,2706.42 2420.57,2861.76 2209.5,3017.5C 2222.74,2989.36 2236.74,2961.69 2251.5,2934.5C 2464.9,2777.09 2678.57,2620.09 2892.5,2463.5 Z"/></g>
<g><path style="opacity:1" fill="#a156fd" d="M 2151.5,2525.5 C 2147.88,2545.58 2143.88,2565.58 2139.5,2585.5C 1940.45,2732.55 1741.11,2879.22 1541.5,3025.5C 1534.31,3013.8 1527.65,3001.8 1521.5,2989.5C 1731.2,2834.48 1941.2,2679.81 2151.5,2525.5 Z"/></g>
<g><path style="opacity:0.999" fill="#b241fd" d="M 2843.5,2551.5 C 2794.66,2639.86 2745.32,2727.86 2695.5,2815.5C 2396.5,3035.5 2097.5,3255.5 1798.5,3475.5C 1777.08,3439.66 1756.41,3403.33 1736.5,3366.5C 1830.93,3295.78 1925.93,3225.78 2021.5,3156.5C 2017.53,3173.5 2014.53,3190.67 2012.5,3208C 2014,3232.84 2027,3247.84 2051.5,3253C 2067.91,3255.31 2081.74,3250.48 2093,3238.5C 2100.58,3227.67 2107.91,3216.67 2115,3205.5C 2146.27,3142.62 2177.77,3079.95 2209.5,3017.5C 2420.57,2861.76 2631.9,2706.42 2843.5,2551.5 Z"/></g>
<g><path style="opacity:1" fill="#a453fd" d="M 2139.5,2585.5 C 2134.83,2608.5 2130.17,2631.5 2125.5,2654.5C 2120.45,2679.34 2115.12,2704.01 2109.5,2728.5C 1936.5,2855.83 1763.5,2983.17 1590.5,3110.5C 1573.93,3082.37 1557.6,3054.03 1541.5,3025.5C 1741.11,2879.22 1940.45,2732.55 2139.5,2585.5 Z"/></g>
<g><path style="opacity:1" fill="#feab05" d="M 2411.5,2612.5 C 2390.17,2655.83 2368.83,2699.17 2347.5,2742.5C 2318.93,2798.64 2290.59,2854.98 2262.5,2911.5C 2197.44,2920.46 2132.44,2929.79 2067.5,2939.5C 2067.5,2938.5 2067.5,2937.5 2067.5,2936.5C 2074.5,2901.16 2081.5,2865.83 2088.5,2830.5C 2096.25,2796.77 2103.25,2762.77 2109.5,2728.5C 2115.12,2704.01 2120.45,2679.34 2125.5,2654.5C 2220.81,2640.41 2316.14,2626.41 2411.5,2612.5 Z"/></g>
<g><path style="opacity:0.999" fill="#a74ffd" d="M 2109.5,2728.5 C 2103.25,2762.77 2096.25,2796.77 2088.5,2830.5C 1933.83,2944.17 1779.17,3057.83 1624.5,3171.5C 1612.9,3151.3 1601.57,3130.97 1590.5,3110.5C 1763.5,2983.17 1936.5,2855.83 2109.5,2728.5 Z"/></g>
<g><path style="opacity:0.999" fill="#b53dfe" d="M 2695.5,2815.5 C 2685.26,2835.66 2674.26,2855.33 2662.5,2874.5C 2378.8,3082.68 2095.47,3291.35 1812.5,3500.5C 1807.58,3492.34 1802.92,3484 1798.5,3475.5C 2097.5,3255.5 2396.5,3035.5 2695.5,2815.5 Z"/></g>
<g><path style="opacity:0.999" fill="#a94cfd" d="M 2088.5,2830.5 C 2081.5,2865.83 2074.5,2901.16 2067.5,2936.5C 2066.05,2941.71 2064.72,2947.05 2063.5,2952.5C 1931.17,3049.83 1798.83,3147.17 1666.5,3244.5C 1652.5,3220.17 1638.5,3195.83 1624.5,3171.5C 1779.17,3057.83 1933.83,2944.17 2088.5,2830.5 Z"/></g>
<g><path style="opacity:0.999" fill="#b73bfd" d="M 2662.5,2874.5 C 2619.34,2952.83 2575.67,3030.83 2531.5,3108.5C 2310.17,3271.5 2088.83,3434.5 1867.5,3597.5C 1848.91,3565.33 1830.58,3533 1812.5,3500.5C 2095.47,3291.35 2378.8,3082.68 2662.5,2874.5 Z"/></g>
<g><path style="opacity:1" fill="#fea702" d="M 2262.5,2911.5 C 2258.56,2919.04 2254.9,2926.71 2251.5,2934.5C 2236.74,2961.69 2222.74,2989.36 2209.5,3017.5C 2177.77,3079.95 2146.27,3142.62 2115,3205.5C 2107.91,3216.67 2100.58,3227.67 2093,3238.5C 2081.74,3250.48 2067.91,3255.31 2051.5,3253C 2027,3247.84 2014,3232.84 2012.5,3208C 2014.53,3190.67 2017.53,3173.5 2021.5,3156.5C 2025.83,3135.83 2030.17,3115.17 2034.5,3094.5C 2044.42,3047.22 2054.09,2999.89 2063.5,2952.5C 2064.72,2947.05 2066.05,2941.71 2067.5,2936.5C 2067.5,2937.5 2067.5,2938.5 2067.5,2939.5C 2132.44,2929.79 2197.44,2920.46 2262.5,2911.5 Z"/></g>
<g><path style="opacity:0.999" fill="#ac48fd" d="M 2063.5,2952.5 C 2054.09,2999.89 2044.42,3047.22 2034.5,3094.5C 1927.95,3172.6 1821.62,3250.93 1715.5,3329.5C 1698.8,3301.45 1682.47,3273.11 1666.5,3244.5C 1798.83,3147.17 1931.17,3049.83 2063.5,2952.5 Z"/></g>
<g><path style="opacity:0.999" fill="#af45fd" d="M 2034.5,3094.5 C 2030.17,3115.17 2025.83,3135.83 2021.5,3156.5C 1925.93,3225.78 1830.93,3295.78 1736.5,3366.5C 1728.74,3354.66 1721.74,3342.33 1715.5,3329.5C 1821.62,3250.93 1927.95,3172.6 2034.5,3094.5 Z"/></g>
<g><path style="opacity:0.998" fill="#ba37fe" d="M 2531.5,3108.5 C 2510,3148.16 2488,3187.5 2465.5,3226.5C 2275.5,3366.17 2085.5,3505.83 1895.5,3645.5C 1886.18,3629.54 1876.85,3613.54 1867.5,3597.5C 2088.83,3434.5 2310.17,3271.5 2531.5,3108.5 Z"/></g>
<g><path style="opacity:0.997" fill="#bc34fe" d="M 2465.5,3226.5 C 2357.04,3422.76 2247.54,3618.43 2137,3813.5C 2107.86,3845.98 2072.36,3855.48 2030.5,3842C 2008.98,3833.48 1992.81,3818.98 1982,3798.5C 1953.14,3747.45 1924.31,3696.45 1895.5,3645.5C 2085.5,3505.83 2275.5,3366.17 2465.5,3226.5 Z"/></g>
</svg>
